<svg id="Logo" xmlns="http://www.w3.org/2000/svg" xmlns:xlink="http://www.w3.org/1999/xlink" width="761.651" height="153.702" viewBox="0 0 761.651 153.702">
  <defs>
    <clipPath id="clip-path">
      <path id="Tracciato_279" data-name="Tracciato 279" d="M0,0H440.65V-26.591H0Z" fill="none"/>
    </clipPath>
    <clipPath id="clip-path-7">
      <path id="Tracciato_317" data-name="Tracciato 317" d="M0,0H132.762V-44.789H0Z" fill="none"/>
    </clipPath>
    <clipPath id="clip-path-8">
      <path id="Tracciato_322" data-name="Tracciato 322" d="M0,0H153.7V-153.7H0Z" fill="none"/>
    </clipPath>
    <clipPath id="clip-path-9">
      <path id="Tracciato_325" data-name="Tracciato 325" d="M31.619-24.268h87.727V-130.329H31.619Z" fill="none"/>
    </clipPath>
  </defs>
  <g id="Raggruppa_309" data-name="Raggruppa 309" transform="translate(321 103.48)">
    <g id="Raggruppa_278" data-name="Raggruppa 278" clip-path="url(#clip-path)">
      <g id="Raggruppa_277" data-name="Raggruppa 277" transform="translate(2.415 -20.399)">
        <path id="Tracciato_278" data-name="Tracciato 278" d="M0,0V11.433c0,3.16.951,6.089,4.677,6.089s4.675-2.929,4.675-6.089V0h2.415V12.254c0,4.264-2.646,7.53-7.09,7.53s-7.092-3.266-7.092-7.53V0Z" fill="#2b2e34"/>
      </g>
    </g>
    <g id="Raggruppa_279" data-name="Raggruppa 279" transform="translate(17.285 -1.027)">
      <path id="Tracciato_280" data-name="Tracciato 280" d="M0,0H2.416V-14.438L16.957.8V-19.372H14.541v14.31L0-20.3Z" fill="#2b2e34"/>
    </g>
    <path id="Tracciato_281" data-name="Tracciato 281" d="M40.015-1.027H37.6V-20.4h2.415Z" fill="#2b2e34"/>
    <g id="Raggruppa_280" data-name="Raggruppa 280" transform="translate(55.786 -20.399)">
      <path id="Tracciato_282" data-name="Tracciato 282" d="M0,0-5.755,14.336-11.535,0h-2.647l8.427,20.4L2.647,0Z" fill="#2b2e34"/>
    </g>
    <g id="Raggruppa_281" data-name="Raggruppa 281" transform="translate(60.073 -20.399)">
      <path id="Tracciato_283" data-name="Tracciato 283" d="M0,0H10.4V2.208H2.415V7.63h7.758V9.841H2.415v7.32H10.4v2.211H0Z" fill="#2b2e34"/>
    </g>
    <g id="Raggruppa_284" data-name="Raggruppa 284" clip-path="url(#clip-path)">
      <g id="Raggruppa_282" data-name="Raggruppa 282" transform="translate(85.503 -1.027)">
        <path id="Tracciato_284" data-name="Tracciato 284" d="M0,0H-2.928l-5.7-8.2h-1V0h-2.415V-19.372h2.928a10.248,10.248,0,0,1,5.113.9,5.358,5.358,0,0,1,2.544,4.624,5.276,5.276,0,0,1-4.65,5.422ZM-9.634-10.2h.771c2.466,0,5.138-.464,5.138-3.546,0-3.031-2.878-3.469-5.267-3.469h-.642Z" fill="#2b2e34"/>
      </g>
      <g id="Raggruppa_283" data-name="Raggruppa 283" transform="translate(96.006 -16.726)">
        <path id="Tracciato_285" data-name="Tracciato 285" d="M0,0A3.318,3.318,0,0,0-3.108-1.824c-1.542,0-3.237,1.055-3.237,2.75,0,1.516,1.489,2.311,2.7,2.774l1.387.541c2.749,1.078,4.8,2.594,4.8,5.831a5.973,5.973,0,0,1-6.191,6.039,6.038,6.038,0,0,1-5.987-5.422l2.441-.514a3.627,3.627,0,0,0,3.75,3.674A3.643,3.643,0,0,0,.129,10.072c0-2.082-1.67-2.98-3.34-3.675l-1.336-.563C-6.757,4.881-8.76,3.623-8.76.926c0-3.134,2.775-5.01,5.7-5.01A5.527,5.527,0,0,1,1.927-1.155Z" fill="#2b2e34"/>
      </g>
    </g>
    <path id="Tracciato_287" data-name="Tracciato 287" d="M103.528-1.027h-2.415V-20.4h2.415Z" fill="#2b2e34"/>
    <g id="Raggruppa_285" data-name="Raggruppa 285" transform="translate(112.365 -1.027)">
      <path id="Tracciato_288" data-name="Tracciato 288" d="M0,0H-2.415V-17.163h-4.6v-2.209H4.6v2.209H0Z" fill="#2b2e34"/>
    </g>
    <g id="Raggruppa_286" data-name="Raggruppa 286" transform="translate(122.456 -26.59)">
      <path id="Tracciato_289" data-name="Tracciato 289" d="M0,0-2.131,1.13,2.082,4.958l1.131-.694L0,0ZM-7.681,25.564h2.6l2.21-4.856h8.89l2.209,4.856h2.6L1.569,5.37Zm9.25-14.9L5.012,18.5H-1.874Z" fill="#2b2e34"/>
    </g>
    <g id="Raggruppa_288" data-name="Raggruppa 288" clip-path="url(#clip-path)">
      <g id="Raggruppa_287" data-name="Raggruppa 287" transform="translate(142.103 -20.399)">
        <path id="Tracciato_290" data-name="Tracciato 290" d="M0,0H4.008C9.943,0,14.876,3.135,14.876,9.583c0,6.6-4.83,9.789-10.945,9.789H0ZM2.415,17.161h.848c4.933,0,9.2-1.85,9.2-7.475,0-5.653-4.265-7.478-9.2-7.478H2.415Z" fill="#2b2e34"/>
      </g>
    </g>
    <g id="Raggruppa_289" data-name="Raggruppa 289" transform="translate(159.388 -20.399)">
      <path id="Tracciato_292" data-name="Tracciato 292" d="M0,0H10.4V2.208H2.415V7.63h7.758V9.841H2.415v7.32H10.4v2.211H0Z" fill="#2b2e34"/>
    </g>
    <g id="Raggruppa_290" data-name="Raggruppa 290" transform="translate(175.183 -3.237)">
      <path id="Tracciato_293" data-name="Tracciato 293" d="M0,0H5.884V2.211h-8.3V-17.161H0Z" fill="#2b2e34"/>
    </g>
    <g id="Raggruppa_292" data-name="Raggruppa 292" clip-path="url(#clip-path)">
      <g id="Raggruppa_291" data-name="Raggruppa 291" transform="translate(192.494 -1.027)">
        <path id="Tracciato_294" data-name="Tracciato 294" d="M0,0H-2.415V-19.372H.359c5.961,0,7.811,2.054,7.811,5.6,0,4.086-3.108,5.654-6.783,5.654H0ZM0-10.277H.771c2.466,0,5.138-.464,5.138-3.546,0-3.032-2.878-3.392-5.267-3.392H0Z" fill="#2b2e34"/>
      </g>
    </g>
    <path id="Tracciato_296" data-name="Tracciato 296" d="M205.129-1.027h-2.415V-20.4h2.415Z" fill="#2b2e34"/>
    <g id="Raggruppa_293" data-name="Raggruppa 293" transform="translate(208.749 -20.399)">
      <path id="Tracciato_297" data-name="Tracciato 297" d="M0,0H10.4V2.208H2.415V7.63h7.758V9.841H2.415v7.32H10.4v2.211H0Z" fill="#2b2e34"/>
    </g>
    <g id="Raggruppa_294" data-name="Raggruppa 294" transform="translate(231.226 -5.96)">
      <path id="Tracciato_298" data-name="Tracciato 298" d="M0,0-6.655-15.26-10.611,4.933h2.492L-5.858-7.861h.051L0,5.345,5.807-7.861h.051L8.118,4.933h2.493L6.655-15.26Z" fill="#2b2e34"/>
    </g>
    <g id="Raggruppa_296" data-name="Raggruppa 296" clip-path="url(#clip-path)">
      <g id="Raggruppa_295" data-name="Raggruppa 295" transform="translate(262.922 -10.712)">
        <path id="Tracciato_299" data-name="Tracciato 299" d="M0,0A10.014,10.014,0,0,1-10.149,10.1,10.014,10.014,0,0,1-20.3,0,10.177,10.177,0,0,1-10.149-10.1,10.177,10.177,0,0,1,0,0M-2.415,0a7.651,7.651,0,0,0-7.734-7.838A7.652,7.652,0,0,0-17.883,0a7.78,7.78,0,0,0,7.734,7.835A7.78,7.78,0,0,0-2.415,0" fill="#2b2e34"/>
      </g>
    </g>
    <g id="Raggruppa_297" data-name="Raggruppa 297" transform="translate(265.021 -1.027)">
      <path id="Tracciato_301" data-name="Tracciato 301" d="M0,0H2.415V-14.438L16.956.8V-19.372H14.541v14.31L0-20.3Z" fill="#2b2e34"/>
    </g>
    <g id="Raggruppa_298" data-name="Raggruppa 298" transform="translate(290.628 -1.027)">
      <path id="Tracciato_302" data-name="Tracciato 302" d="M0,0H-2.415V-17.163h-4.6v-2.209H4.6v2.209H0Z" fill="#2b2e34"/>
    </g>
    <g id="Raggruppa_299" data-name="Raggruppa 299" transform="translate(297.125 -20.399)">
      <path id="Tracciato_303" data-name="Tracciato 303" d="M0,0H10.4V2.208H2.415V7.63h7.758V9.841H2.415v7.32H10.4v2.211H0Z" fill="#2b2e34"/>
    </g>
    <g id="Raggruppa_302" data-name="Raggruppa 302" clip-path="url(#clip-path)">
      <g id="Raggruppa_300" data-name="Raggruppa 300" transform="translate(336.842 -10.712)">
        <path id="Tracciato_304" data-name="Tracciato 304" d="M0,0A10.014,10.014,0,0,1-10.149,10.1,10.014,10.014,0,0,1-20.3,0,10.176,10.176,0,0,1-10.149-10.1,10.177,10.177,0,0,1,0,0M-2.415,0a7.651,7.651,0,0,0-7.734-7.838A7.652,7.652,0,0,0-17.882,0a7.779,7.779,0,0,0,7.733,7.835A7.78,7.78,0,0,0-2.415,0" fill="#2b2e34"/>
      </g>
      <g id="Raggruppa_301" data-name="Raggruppa 301" transform="translate(351.223 -1.027)">
        <path id="Tracciato_305" data-name="Tracciato 305" d="M0,0H-2.928l-5.7-8.2h-1V0h-2.415V-19.372h2.928a10.248,10.248,0,0,1,5.113.9,5.358,5.358,0,0,1,2.544,4.624,5.276,5.276,0,0,1-4.65,5.422ZM-9.634-10.2h.771c2.466,0,5.138-.464,5.138-3.546,0-3.031-2.878-3.469-5.267-3.469h-.642Z" fill="#2b2e34"/>
      </g>
    </g>
    <path id="Tracciato_307" data-name="Tracciato 307" d="M355.458-1.027h-2.415V-20.4h2.415Z" fill="#2b2e34"/>
    <g id="Raggruppa_303" data-name="Raggruppa 303" transform="translate(359.078 -20.399)">
      <path id="Tracciato_308" data-name="Tracciato 308" d="M0,0H10.4V2.208H2.415V7.63h7.758V9.841H2.415v7.32H10.4v2.211H0Z" fill="#2b2e34"/>
    </g>
    <g id="Raggruppa_304" data-name="Raggruppa 304" transform="translate(372.227 -1.027)">
      <path id="Tracciato_309" data-name="Tracciato 309" d="M0,0H2.416V-14.438L16.957.8V-19.372H14.541v14.31L0-20.3Z" fill="#2b2e34"/>
    </g>
    <g id="Raggruppa_305" data-name="Raggruppa 305" transform="translate(397.835 -1.027)">
      <path id="Tracciato_310" data-name="Tracciato 310" d="M0,0H-2.415V-17.163h-4.6v-2.209H4.6v2.209H0Z" fill="#2b2e34"/>
    </g>
    <g id="Raggruppa_306" data-name="Raggruppa 306" transform="translate(405.051 -5.882)">
      <path id="Tracciato_311" data-name="Tracciato 311" d="M0,0-2.209,4.856H-4.8L4.445-15.338l9.25,20.194H11.1L8.891,0ZM4.445-10.046,1-2.21H7.888Z" fill="#2b2e34"/>
    </g>
    <g id="Raggruppa_307" data-name="Raggruppa 307" transform="translate(422.772 -3.237)">
      <path id="Tracciato_312" data-name="Tracciato 312" d="M0,0H5.884V2.211h-8.3V-17.161H0Z" fill="#2b2e34"/>
    </g>
    <g id="Raggruppa_308" data-name="Raggruppa 308" transform="translate(430.246 -20.399)">
      <path id="Tracciato_313" data-name="Tracciato 313" d="M0,0V19.372H10.4V17.161H2.415V9.841h7.758V7.63H2.415V2.209H10.4V0Z" fill="#2b2e34"/>
    </g>
  </g>
  <g id="Raggruppa_314" data-name="Raggruppa 314" transform="translate(176 103.876)">
    <g id="Raggruppa_313" data-name="Raggruppa 313" clip-path="url(#clip-path-7)">
      <g id="Raggruppa_310" data-name="Raggruppa 310" transform="translate(40.183 -44.098)">
        <path id="Tracciato_314" data-name="Tracciato 314" d="M0,0V25.675C0,38.341-7.945,44.1-20.091,44.1s-20.092-5.757-20.092-18.423V0h15.774V24.179c0,3.4.115,6.39,4.318,6.39s4.317-2.993,4.317-6.39V0Z" fill="#e12614"/>
      </g>
      <g id="Raggruppa_311" data-name="Raggruppa 311" transform="translate(45.772 -44.098)">
        <path id="Tracciato_315" data-name="Tracciato 315" d="M0,0H19.976C30.108,0,37.592,5.182,37.592,15.947c0,8.865-5.527,14.392-14.334,14.392H15.2V43.407H0ZM15.2,19.4h1.554c2.764,0,5.757-.46,5.757-3.972,0-3.4-3.224-3.569-5.814-3.569H15.2Z" fill="#e12614"/>
      </g>
      <g id="Raggruppa_312" data-name="Raggruppa 312" transform="translate(132.762 -22.279)">
        <path id="Tracciato_316" data-name="Tracciato 316" d="M0,0C0,13.932-10.765,22.279-24,22.279S-48.012,13.932-48.012,0c0-13.644,10.823-22.509,24.007-22.509S0-13.644,0,0M-32.123.23c0,4.952,3.339,8.348,8.118,8.348s8.117-3.4,8.117-8.348C-15.888-4.375-19-8.232-24-8.232S-32.123-4.375-32.123.23" fill="#e12614"/>
      </g>
    </g>
  </g>
  <g id="Raggruppa_542" data-name="Raggruppa 542" transform="translate(0 153.702)">
    <g id="Raggruppa_319" data-name="Raggruppa 319" clip-path="url(#clip-path-8)">
      <g id="Raggruppa_315" data-name="Raggruppa 315" transform="translate(76.851)">
        <path id="Tracciato_318" data-name="Tracciato 318" d="M0,0A76.851,76.851,0,0,0,76.851-76.851,76.851,76.851,0,0,0,0-153.7,76.851,76.851,0,0,0-76.851-76.851,76.851,76.851,0,0,0,0,0" fill="#fff"/>
      </g>
      <g id="Raggruppa_316" data-name="Raggruppa 316" transform="translate(76.851 -10.357)">
        <path id="Tracciato_319" data-name="Tracciato 319" d="M0,0A66.5,66.5,0,0,0,66.5-66.493,66.5,66.5,0,0,0,0-132.988a66.494,66.494,0,0,0-66.5,66.5A66.494,66.494,0,0,0,0,0" fill="#e12614" stroke="#e12614" stroke-width="1.175"/>
      </g>
      <g id="Raggruppa_317" data-name="Raggruppa 317" transform="translate(76.851 -10.357)">
        <path id="Tracciato_320" data-name="Tracciato 320" d="M0,0A66.5,66.5,0,0,0,66.5-66.493,66.5,66.5,0,0,0,0-132.988a66.494,66.494,0,0,0-66.5,66.5A66.494,66.494,0,0,0,0,0" fill="#e12614"/>
      </g>
      <g id="Raggruppa_318" data-name="Raggruppa 318" transform="translate(76.851 -10.357)">
        <path id="Tracciato_321" data-name="Tracciato 321" d="M0,0A66.5,66.5,0,0,0,66.5-66.493,66.5,66.5,0,0,0,0-132.988a66.494,66.494,0,0,0-66.5,66.5A66.494,66.494,0,0,0,0,0Z" fill="none" stroke="#e12614" stroke-width="1.234"/>
      </g>
    </g>
    <g id="Raggruppa_322" data-name="Raggruppa 322" clip-path="url(#clip-path-9)">
      <g id="Raggruppa_320" data-name="Raggruppa 320" transform="translate(93.815 -126.184)">
        <path id="Tracciato_323" data-name="Tracciato 323" d="M0,0A3.055,3.055,0,0,1-3.055,3.055,3.055,3.055,0,0,1-6.109,0,3.055,3.055,0,0,1-3.055-3.055,3.055,3.055,0,0,1,0,0" fill="#fff" stroke="#e12614" stroke-width="0.587"/>
      </g>
      <g id="Raggruppa_321" data-name="Raggruppa 321" transform="translate(93.815 -126.184)">
        <path id="Tracciato_324" data-name="Tracciato 324" d="M0,0A3.055,3.055,0,0,1-3.055,3.055,3.055,3.055,0,0,1-6.109,0,3.055,3.055,0,0,1-3.055-3.055,3.055,3.055,0,0,1,0,0Z" fill="none" stroke="#e12614" stroke-width="0.726"/>
      </g>
    </g>
    <g id="Raggruppa_381" data-name="Raggruppa 381" clip-path="url(#clip-path-8)">
      <g id="Raggruppa_323" data-name="Raggruppa 323" transform="translate(93.815 -120.074)">
        <path id="Tracciato_326" data-name="Tracciato 326" d="M0,0A3.056,3.056,0,0,1-3.055,3.056,3.055,3.055,0,0,1-6.109,0,3.055,3.055,0,0,1-3.055-3.055,3.055,3.055,0,0,1,0,0" fill="#fff" stroke="#e12614" stroke-width="0.587"/>
      </g>
      <g id="Raggruppa_324" data-name="Raggruppa 324" transform="translate(93.815 -120.074)">
        <path id="Tracciato_327" data-name="Tracciato 327" d="M0,0A3.056,3.056,0,0,1-3.055,3.056,3.055,3.055,0,0,1-6.109,0,3.055,3.055,0,0,1-3.055-3.055,3.055,3.055,0,0,1,0,0Z" fill="none" stroke="#e12614" stroke-width="0.726"/>
      </g>
      <g id="Raggruppa_325" data-name="Raggruppa 325" transform="translate(93.815 -113.962)">
        <path id="Tracciato_328" data-name="Tracciato 328" d="M0,0A3.055,3.055,0,0,1-3.055,3.055,3.055,3.055,0,0,1-6.109,0,3.055,3.055,0,0,1-3.055-3.056,3.056,3.056,0,0,1,0,0" fill="#fff" stroke="#e12614" stroke-width="0.587"/>
      </g>
      <g id="Raggruppa_326" data-name="Raggruppa 326" transform="translate(93.815 -113.962)">
        <path id="Tracciato_329" data-name="Tracciato 329" d="M0,0A3.055,3.055,0,0,1-3.055,3.055,3.055,3.055,0,0,1-6.109,0,3.055,3.055,0,0,1-3.055-3.056,3.056,3.056,0,0,1,0,0Z" fill="none" stroke="#e12614" stroke-width="0.726"/>
      </g>
      <g id="Raggruppa_327" data-name="Raggruppa 327" transform="translate(93.815 -107.852)">
        <path id="Tracciato_330" data-name="Tracciato 330" d="M0,0A3.053,3.053,0,0,1-3.055,3.054,3.053,3.053,0,0,1-6.109,0,3.055,3.055,0,0,1-3.055-3.055,3.055,3.055,0,0,1,0,0" fill="#fff" stroke="#e12614" stroke-width="0.587"/>
      </g>
      <g id="Raggruppa_328" data-name="Raggruppa 328" transform="translate(93.815 -107.852)">
        <path id="Tracciato_331" data-name="Tracciato 331" d="M0,0A3.053,3.053,0,0,1-3.055,3.054,3.053,3.053,0,0,1-6.109,0,3.055,3.055,0,0,1-3.055-3.055,3.055,3.055,0,0,1,0,0Z" fill="none" stroke="#e12614" stroke-width="0.726"/>
      </g>
      <g id="Raggruppa_329" data-name="Raggruppa 329" transform="translate(99.926 -113.962)">
        <path id="Tracciato_332" data-name="Tracciato 332" d="M0,0A3.056,3.056,0,0,1-3.055,3.055,3.056,3.056,0,0,1-6.111,0,3.056,3.056,0,0,1-3.055-3.056,3.056,3.056,0,0,1,0,0" fill="#fff" stroke="#e12614" stroke-width="0.587"/>
      </g>
      <g id="Raggruppa_330" data-name="Raggruppa 330" transform="translate(99.926 -113.962)">
        <path id="Tracciato_333" data-name="Tracciato 333" d="M0,0A3.056,3.056,0,0,1-3.055,3.055,3.056,3.056,0,0,1-6.111,0,3.056,3.056,0,0,1-3.055-3.056,3.056,3.056,0,0,1,0,0Z" fill="none" stroke="#e12614" stroke-width="0.726"/>
      </g>
      <g id="Raggruppa_331" data-name="Raggruppa 331" transform="translate(99.926 -107.852)">
        <path id="Tracciato_334" data-name="Tracciato 334" d="M0,0A3.054,3.054,0,0,1-3.055,3.054,3.054,3.054,0,0,1-6.111,0,3.056,3.056,0,0,1-3.055-3.055,3.056,3.056,0,0,1,0,0" fill="#fff" stroke="#e12614" stroke-width="0.587"/>
      </g>
      <g id="Raggruppa_332" data-name="Raggruppa 332" transform="translate(99.926 -107.852)">
        <path id="Tracciato_335" data-name="Tracciato 335" d="M0,0A3.054,3.054,0,0,1-3.055,3.054,3.054,3.054,0,0,1-6.111,0,3.056,3.056,0,0,1-3.055-3.055,3.056,3.056,0,0,1,0,0Z" fill="none" stroke="#e12614" stroke-width="0.726"/>
      </g>
      <g id="Raggruppa_333" data-name="Raggruppa 333" transform="translate(93.815 -101.742)">
        <path id="Tracciato_336" data-name="Tracciato 336" d="M0,0A3.055,3.055,0,0,1-3.055,3.056,3.055,3.055,0,0,1-6.109,0,3.055,3.055,0,0,1-3.055-3.055,3.055,3.055,0,0,1,0,0" fill="#fff" stroke="#e12614" stroke-width="0.587"/>
      </g>
      <g id="Raggruppa_334" data-name="Raggruppa 334" transform="translate(93.815 -101.742)">
        <path id="Tracciato_337" data-name="Tracciato 337" d="M0,0A3.055,3.055,0,0,1-3.055,3.056,3.055,3.055,0,0,1-6.109,0,3.055,3.055,0,0,1-3.055-3.055,3.055,3.055,0,0,1,0,0Z" fill="none" stroke="#e12614" stroke-width="0.726"/>
      </g>
      <g id="Raggruppa_335" data-name="Raggruppa 335" transform="translate(93.815 -95.631)">
        <path id="Tracciato_338" data-name="Tracciato 338" d="M0,0A3.055,3.055,0,0,1-3.055,3.055,3.055,3.055,0,0,1-6.109,0,3.055,3.055,0,0,1-3.055-3.056,3.056,3.056,0,0,1,0,0" fill="#fff" stroke="#e12614" stroke-width="0.587"/>
      </g>
      <g id="Raggruppa_336" data-name="Raggruppa 336" transform="translate(93.815 -95.631)">
        <path id="Tracciato_339" data-name="Tracciato 339" d="M0,0A3.055,3.055,0,0,1-3.055,3.055,3.055,3.055,0,0,1-6.109,0,3.055,3.055,0,0,1-3.055-3.056,3.056,3.056,0,0,1,0,0Z" fill="none" stroke="#e12614" stroke-width="0.726"/>
      </g>
      <g id="Raggruppa_337" data-name="Raggruppa 337" transform="translate(93.815 -89.521)">
        <path id="Tracciato_340" data-name="Tracciato 340" d="M0,0A3.055,3.055,0,0,1-3.055,3.055,3.054,3.054,0,0,1-6.109,0,3.055,3.055,0,0,1-3.055-3.055,3.055,3.055,0,0,1,0,0" fill="#fff" stroke="#e12614" stroke-width="0.587"/>
      </g>
      <g id="Raggruppa_338" data-name="Raggruppa 338" transform="translate(93.815 -89.521)">
        <path id="Tracciato_341" data-name="Tracciato 341" d="M0,0A3.055,3.055,0,0,1-3.055,3.055,3.054,3.054,0,0,1-6.109,0,3.055,3.055,0,0,1-3.055-3.055,3.055,3.055,0,0,1,0,0Z" fill="none" stroke="#e12614" stroke-width="0.726"/>
      </g>
      <g id="Raggruppa_339" data-name="Raggruppa 339" transform="translate(93.815 -83.409)">
        <path id="Tracciato_342" data-name="Tracciato 342" d="M0,0A3.056,3.056,0,0,1-3.055,3.056,3.056,3.056,0,0,1-6.109,0,3.055,3.055,0,0,1-3.055-3.056,3.056,3.056,0,0,1,0,0" fill="#fff" stroke="#e12614" stroke-width="0.587"/>
      </g>
      <g id="Raggruppa_340" data-name="Raggruppa 340" transform="translate(93.815 -83.409)">
        <path id="Tracciato_343" data-name="Tracciato 343" d="M0,0A3.056,3.056,0,0,1-3.055,3.056,3.056,3.056,0,0,1-6.109,0,3.055,3.055,0,0,1-3.055-3.056,3.056,3.056,0,0,1,0,0Z" fill="none" stroke="#e12614" stroke-width="0.726"/>
      </g>
      <g id="Raggruppa_341" data-name="Raggruppa 341" transform="translate(99.926 -95.631)">
        <path id="Tracciato_344" data-name="Tracciato 344" d="M0,0A3.056,3.056,0,0,1-3.055,3.055,3.056,3.056,0,0,1-6.111,0,3.056,3.056,0,0,1-3.055-3.056,3.056,3.056,0,0,1,0,0" fill="#fff" stroke="#e12614" stroke-width="0.587"/>
      </g>
      <g id="Raggruppa_342" data-name="Raggruppa 342" transform="translate(99.926 -95.631)">
        <path id="Tracciato_345" data-name="Tracciato 345" d="M0,0A3.056,3.056,0,0,1-3.055,3.055,3.056,3.056,0,0,1-6.111,0,3.056,3.056,0,0,1-3.055-3.056,3.056,3.056,0,0,1,0,0Z" fill="none" stroke="#e12614" stroke-width="0.726"/>
      </g>
      <g id="Raggruppa_343" data-name="Raggruppa 343" transform="translate(99.926 -89.521)">
        <path id="Tracciato_346" data-name="Tracciato 346" d="M0,0A3.055,3.055,0,0,1-3.055,3.055,3.056,3.056,0,0,1-6.111,0,3.056,3.056,0,0,1-3.055-3.055,3.056,3.056,0,0,1,0,0" fill="#fff" stroke="#e12614" stroke-width="0.587"/>
      </g>
      <g id="Raggruppa_344" data-name="Raggruppa 344" transform="translate(99.926 -89.521)">
        <path id="Tracciato_347" data-name="Tracciato 347" d="M0,0A3.055,3.055,0,0,1-3.055,3.055,3.056,3.056,0,0,1-6.111,0,3.056,3.056,0,0,1-3.055-3.055,3.056,3.056,0,0,1,0,0Z" fill="none" stroke="#e12614" stroke-width="0.726"/>
      </g>
      <g id="Raggruppa_345" data-name="Raggruppa 345" transform="translate(99.926 -83.409)">
        <path id="Tracciato_348" data-name="Tracciato 348" d="M0,0A3.057,3.057,0,0,1-3.055,3.056,3.057,3.057,0,0,1-6.111,0,3.056,3.056,0,0,1-3.055-3.056,3.056,3.056,0,0,1,0,0" fill="#fff" stroke="#e12614" stroke-width="0.587"/>
      </g>
      <g id="Raggruppa_346" data-name="Raggruppa 346" transform="translate(99.926 -83.409)">
        <path id="Tracciato_349" data-name="Tracciato 349" d="M0,0A3.057,3.057,0,0,1-3.055,3.056,3.057,3.057,0,0,1-6.111,0,3.056,3.056,0,0,1-3.055-3.056,3.056,3.056,0,0,1,0,0Z" fill="none" stroke="#e12614" stroke-width="0.726"/>
      </g>
      <g id="Raggruppa_347" data-name="Raggruppa 347" transform="translate(106.036 -83.409)">
        <path id="Tracciato_350" data-name="Tracciato 350" d="M0,0A3.057,3.057,0,0,1-3.056,3.056,3.056,3.056,0,0,1-6.11,0,3.055,3.055,0,0,1-3.056-3.056,3.056,3.056,0,0,1,0,0" fill="#fff" stroke="#e12614" stroke-width="0.587"/>
      </g>
      <g id="Raggruppa_348" data-name="Raggruppa 348" transform="translate(106.036 -83.409)">
        <path id="Tracciato_351" data-name="Tracciato 351" d="M0,0A3.057,3.057,0,0,1-3.056,3.056,3.056,3.056,0,0,1-6.11,0,3.055,3.055,0,0,1-3.056-3.056,3.056,3.056,0,0,1,0,0Z" fill="none" stroke="#e12614" stroke-width="0.726"/>
      </g>
      <g id="Raggruppa_349" data-name="Raggruppa 349" transform="translate(93.815 -77.299)">
        <path id="Tracciato_352" data-name="Tracciato 352" d="M0,0A3.056,3.056,0,0,1-3.055,3.056,3.055,3.055,0,0,1-6.109,0,3.055,3.055,0,0,1-3.055-3.055,3.055,3.055,0,0,1,0,0" fill="#fff" stroke="#e12614" stroke-width="0.587"/>
      </g>
      <g id="Raggruppa_350" data-name="Raggruppa 350" transform="translate(93.815 -77.299)">
        <path id="Tracciato_353" data-name="Tracciato 353" d="M0,0A3.056,3.056,0,0,1-3.055,3.056,3.055,3.055,0,0,1-6.109,0,3.055,3.055,0,0,1-3.055-3.055,3.055,3.055,0,0,1,0,0Z" fill="none" stroke="#e12614" stroke-width="0.726"/>
      </g>
      <g id="Raggruppa_351" data-name="Raggruppa 351" transform="translate(93.815 -71.189)">
        <path id="Tracciato_354" data-name="Tracciato 354" d="M0,0A3.056,3.056,0,0,1-3.055,3.057,3.056,3.056,0,0,1-6.109,0,3.055,3.055,0,0,1-3.055-3.055,3.055,3.055,0,0,1,0,0" fill="#fff" stroke="#e12614" stroke-width="0.587"/>
      </g>
      <g id="Raggruppa_352" data-name="Raggruppa 352" transform="translate(93.815 -71.189)">
        <path id="Tracciato_355" data-name="Tracciato 355" d="M0,0A3.056,3.056,0,0,1-3.055,3.057,3.056,3.056,0,0,1-6.109,0,3.055,3.055,0,0,1-3.055-3.055,3.055,3.055,0,0,1,0,0Z" fill="none" stroke="#e12614" stroke-width="0.726"/>
      </g>
      <g id="Raggruppa_353" data-name="Raggruppa 353" transform="translate(93.815 -65.078)">
        <path id="Tracciato_356" data-name="Tracciato 356" d="M0,0A3.055,3.055,0,0,1-3.055,3.056,3.055,3.055,0,0,1-6.109,0,3.055,3.055,0,0,1-3.055-3.055,3.055,3.055,0,0,1,0,0" fill="#fff" stroke="#e12614" stroke-width="0.587"/>
      </g>
      <g id="Raggruppa_354" data-name="Raggruppa 354" transform="translate(93.815 -65.078)">
        <path id="Tracciato_357" data-name="Tracciato 357" d="M0,0A3.055,3.055,0,0,1-3.055,3.056,3.055,3.055,0,0,1-6.109,0,3.055,3.055,0,0,1-3.055-3.055,3.055,3.055,0,0,1,0,0Z" fill="none" stroke="#e12614" stroke-width="0.726"/>
      </g>
      <g id="Raggruppa_355" data-name="Raggruppa 355" transform="translate(93.815 -58.967)">
        <path id="Tracciato_358" data-name="Tracciato 358" d="M0,0A3.056,3.056,0,0,1-3.055,3.057,3.056,3.056,0,0,1-6.109,0,3.055,3.055,0,0,1-3.055-3.055,3.055,3.055,0,0,1,0,0" fill="#fff" stroke="#e12614" stroke-width="0.587"/>
      </g>
      <g id="Raggruppa_356" data-name="Raggruppa 356" transform="translate(93.815 -58.967)">
        <path id="Tracciato_359" data-name="Tracciato 359" d="M0,0A3.056,3.056,0,0,1-3.055,3.057,3.056,3.056,0,0,1-6.109,0,3.055,3.055,0,0,1-3.055-3.055,3.055,3.055,0,0,1,0,0Z" fill="none" stroke="#e12614" stroke-width="0.726"/>
      </g>
      <g id="Raggruppa_357" data-name="Raggruppa 357" transform="translate(93.815 -52.856)">
        <path id="Tracciato_360" data-name="Tracciato 360" d="M0,0A3.056,3.056,0,0,1-3.055,3.056,3.055,3.055,0,0,1-6.109,0,3.056,3.056,0,0,1-3.055-3.056,3.056,3.056,0,0,1,0,0" fill="#fff" stroke="#e12614" stroke-width="0.587"/>
      </g>
      <g id="Raggruppa_358" data-name="Raggruppa 358" transform="translate(93.815 -52.856)">
        <path id="Tracciato_361" data-name="Tracciato 361" d="M0,0A3.056,3.056,0,0,1-3.055,3.056,3.055,3.055,0,0,1-6.109,0,3.056,3.056,0,0,1-3.055-3.056,3.056,3.056,0,0,1,0,0Z" fill="none" stroke="#e12614" stroke-width="0.726"/>
      </g>
      <g id="Raggruppa_359" data-name="Raggruppa 359" transform="translate(99.926 -71.189)">
        <path id="Tracciato_362" data-name="Tracciato 362" d="M0,0A3.056,3.056,0,0,1-3.055,3.057,3.057,3.057,0,0,1-6.111,0,3.056,3.056,0,0,1-3.055-3.055,3.056,3.056,0,0,1,0,0" fill="#fff" stroke="#e12614" stroke-width="0.587"/>
      </g>
      <g id="Raggruppa_360" data-name="Raggruppa 360" transform="translate(99.926 -71.189)">
        <path id="Tracciato_363" data-name="Tracciato 363" d="M0,0A3.056,3.056,0,0,1-3.055,3.057,3.057,3.057,0,0,1-6.111,0,3.056,3.056,0,0,1-3.055-3.055,3.056,3.056,0,0,1,0,0Z" fill="none" stroke="#e12614" stroke-width="0.726"/>
      </g>
      <g id="Raggruppa_361" data-name="Raggruppa 361" transform="translate(99.926 -65.078)">
        <path id="Tracciato_364" data-name="Tracciato 364" d="M0,0A3.056,3.056,0,0,1-3.055,3.056,3.056,3.056,0,0,1-6.111,0,3.056,3.056,0,0,1-3.055-3.055,3.056,3.056,0,0,1,0,0" fill="#fff" stroke="#e12614" stroke-width="0.587"/>
      </g>
      <g id="Raggruppa_362" data-name="Raggruppa 362" transform="translate(99.926 -65.078)">
        <path id="Tracciato_365" data-name="Tracciato 365" d="M0,0A3.056,3.056,0,0,1-3.055,3.056,3.056,3.056,0,0,1-6.111,0,3.056,3.056,0,0,1-3.055-3.055,3.056,3.056,0,0,1,0,0Z" fill="none" stroke="#e12614" stroke-width="0.726"/>
      </g>
      <g id="Raggruppa_363" data-name="Raggruppa 363" transform="translate(99.926 -58.967)">
        <path id="Tracciato_366" data-name="Tracciato 366" d="M0,0A3.057,3.057,0,0,1-3.055,3.057,3.057,3.057,0,0,1-6.111,0,3.056,3.056,0,0,1-3.055-3.055,3.056,3.056,0,0,1,0,0" fill="#fff" stroke="#e12614" stroke-width="0.587"/>
      </g>
      <g id="Raggruppa_364" data-name="Raggruppa 364" transform="translate(99.926 -58.967)">
        <path id="Tracciato_367" data-name="Tracciato 367" d="M0,0A3.057,3.057,0,0,1-3.055,3.057,3.057,3.057,0,0,1-6.111,0,3.056,3.056,0,0,1-3.055-3.055,3.056,3.056,0,0,1,0,0Z" fill="none" stroke="#e12614" stroke-width="0.726"/>
      </g>
      <g id="Raggruppa_365" data-name="Raggruppa 365" transform="translate(99.926 -52.856)">
        <path id="Tracciato_368" data-name="Tracciato 368" d="M0,0A3.056,3.056,0,0,1-3.055,3.056,3.056,3.056,0,0,1-6.111,0,3.057,3.057,0,0,1-3.055-3.056,3.057,3.057,0,0,1,0,0" fill="#fff" stroke="#e12614" stroke-width="0.587"/>
      </g>
      <g id="Raggruppa_366" data-name="Raggruppa 366" transform="translate(99.926 -52.856)">
        <path id="Tracciato_369" data-name="Tracciato 369" d="M0,0A3.056,3.056,0,0,1-3.055,3.056,3.056,3.056,0,0,1-6.111,0,3.057,3.057,0,0,1-3.055-3.056,3.057,3.057,0,0,1,0,0Z" fill="none" stroke="#e12614" stroke-width="0.726"/>
      </g>
      <g id="Raggruppa_367" data-name="Raggruppa 367" transform="translate(106.036 -65.078)">
        <path id="Tracciato_370" data-name="Tracciato 370" d="M0,0A3.056,3.056,0,0,1-3.056,3.056,3.055,3.055,0,0,1-6.11,0,3.055,3.055,0,0,1-3.056-3.055,3.056,3.056,0,0,1,0,0" fill="#fff" stroke="#e12614" stroke-width="0.587"/>
      </g>
      <g id="Raggruppa_368" data-name="Raggruppa 368" transform="translate(106.036 -65.078)">
        <path id="Tracciato_371" data-name="Tracciato 371" d="M0,0A3.056,3.056,0,0,1-3.056,3.056,3.055,3.055,0,0,1-6.11,0,3.055,3.055,0,0,1-3.056-3.055,3.056,3.056,0,0,1,0,0Z" fill="none" stroke="#e12614" stroke-width="0.726"/>
      </g>
      <g id="Raggruppa_369" data-name="Raggruppa 369" transform="translate(106.036 -58.967)">
        <path id="Tracciato_372" data-name="Tracciato 372" d="M0,0A3.057,3.057,0,0,1-3.056,3.057,3.056,3.056,0,0,1-6.11,0,3.055,3.055,0,0,1-3.056-3.055,3.056,3.056,0,0,1,0,0" fill="#fff" stroke="#e12614" stroke-width="0.587"/>
      </g>
      <g id="Raggruppa_370" data-name="Raggruppa 370" transform="translate(106.036 -58.967)">
        <path id="Tracciato_373" data-name="Tracciato 373" d="M0,0A3.057,3.057,0,0,1-3.056,3.057,3.056,3.056,0,0,1-6.11,0,3.055,3.055,0,0,1-3.056-3.055,3.056,3.056,0,0,1,0,0Z" fill="none" stroke="#e12614" stroke-width="0.726"/>
      </g>
      <g id="Raggruppa_371" data-name="Raggruppa 371" transform="translate(106.036 -52.856)">
        <path id="Tracciato_374" data-name="Tracciato 374" d="M0,0A3.056,3.056,0,0,1-3.056,3.056,3.055,3.055,0,0,1-6.11,0,3.056,3.056,0,0,1-3.056-3.056,3.057,3.057,0,0,1,0,0" fill="#fff" stroke="#e12614" stroke-width="0.587"/>
      </g>
      <g id="Raggruppa_372" data-name="Raggruppa 372" transform="translate(106.036 -52.856)">
        <path id="Tracciato_375" data-name="Tracciato 375" d="M0,0A3.056,3.056,0,0,1-3.056,3.056,3.055,3.055,0,0,1-6.11,0,3.056,3.056,0,0,1-3.056-3.056,3.057,3.057,0,0,1,0,0Z" fill="none" stroke="#e12614" stroke-width="0.726"/>
      </g>
      <g id="Raggruppa_373" data-name="Raggruppa 373" transform="translate(106.036 -46.746)">
        <path id="Tracciato_376" data-name="Tracciato 376" d="M0,0A3.056,3.056,0,0,1-3.056,3.056,3.055,3.055,0,0,1-6.11,0,3.055,3.055,0,0,1-3.056-3.055,3.056,3.056,0,0,1,0,0" fill="#fff" stroke="#e12614" stroke-width="0.587"/>
      </g>
      <g id="Raggruppa_374" data-name="Raggruppa 374" transform="translate(106.036 -46.746)">
        <path id="Tracciato_377" data-name="Tracciato 377" d="M0,0A3.056,3.056,0,0,1-3.056,3.056,3.055,3.055,0,0,1-6.11,0,3.055,3.055,0,0,1-3.056-3.055,3.056,3.056,0,0,1,0,0Z" fill="none" stroke="#e12614" stroke-width="0.726"/>
      </g>
      <g id="Raggruppa_375" data-name="Raggruppa 375" transform="translate(112.146 -65.078)">
        <path id="Tracciato_378" data-name="Tracciato 378" d="M0,0A3.055,3.055,0,0,1-3.055,3.056,3.056,3.056,0,0,1-6.111,0,3.057,3.057,0,0,1-3.055-3.055,3.055,3.055,0,0,1,0,0" fill="#fff" stroke="#e12614" stroke-width="0.587"/>
      </g>
      <g id="Raggruppa_376" data-name="Raggruppa 376" transform="translate(112.146 -65.078)">
        <path id="Tracciato_379" data-name="Tracciato 379" d="M0,0A3.055,3.055,0,0,1-3.055,3.056,3.056,3.056,0,0,1-6.111,0,3.057,3.057,0,0,1-3.055-3.055,3.055,3.055,0,0,1,0,0Z" fill="none" stroke="#e12614" stroke-width="0.726"/>
      </g>
      <g id="Raggruppa_377" data-name="Raggruppa 377" transform="translate(112.146 -58.967)">
        <path id="Tracciato_380" data-name="Tracciato 380" d="M0,0A3.056,3.056,0,0,1-3.055,3.057,3.058,3.058,0,0,1-6.111,0,3.057,3.057,0,0,1-3.055-3.055,3.055,3.055,0,0,1,0,0" fill="#fff" stroke="#e12614" stroke-width="0.587"/>
      </g>
      <g id="Raggruppa_378" data-name="Raggruppa 378" transform="translate(112.146 -58.967)">
        <path id="Tracciato_381" data-name="Tracciato 381" d="M0,0A3.056,3.056,0,0,1-3.055,3.057,3.058,3.058,0,0,1-6.111,0,3.057,3.057,0,0,1-3.055-3.055,3.055,3.055,0,0,1,0,0Z" fill="none" stroke="#e12614" stroke-width="0.726"/>
      </g>
      <g id="Raggruppa_379" data-name="Raggruppa 379" transform="translate(112.146 -52.856)">
        <path id="Tracciato_382" data-name="Tracciato 382" d="M0,0A3.056,3.056,0,0,1-3.055,3.056,3.057,3.057,0,0,1-6.111,0,3.058,3.058,0,0,1-3.055-3.056,3.056,3.056,0,0,1,0,0" fill="#fff" stroke="#e12614" stroke-width="0.587"/>
      </g>
      <g id="Raggruppa_380" data-name="Raggruppa 380" transform="translate(112.146 -52.856)">
        <path id="Tracciato_383" data-name="Tracciato 383" d="M0,0A3.056,3.056,0,0,1-3.055,3.056,3.057,3.057,0,0,1-6.111,0,3.058,3.058,0,0,1-3.055-3.056,3.056,3.056,0,0,1,0,0Z" fill="none" stroke="#e12614" stroke-width="0.726"/>
      </g>
    </g>
    <g id="Raggruppa_384" data-name="Raggruppa 384" clip-path="url(#clip-path-9)">
      <g id="Raggruppa_382" data-name="Raggruppa 382" transform="translate(118.258 -52.856)">
        <path id="Tracciato_385" data-name="Tracciato 385" d="M0,0A3.057,3.057,0,0,1-3.056,3.056,3.055,3.055,0,0,1-6.111,0,3.056,3.056,0,0,1-3.056-3.056,3.058,3.058,0,0,1,0,0" fill="#fff" stroke="#e12614" stroke-width="0.587"/>
      </g>
      <g id="Raggruppa_383" data-name="Raggruppa 383" transform="translate(118.258 -52.856)">
        <path id="Tracciato_386" data-name="Tracciato 386" d="M0,0A3.057,3.057,0,0,1-3.056,3.056,3.055,3.055,0,0,1-6.111,0,3.056,3.056,0,0,1-3.056-3.056,3.058,3.058,0,0,1,0,0Z" fill="none" stroke="#e12614" stroke-width="0.726"/>
      </g>
    </g>
    <g id="Raggruppa_501" data-name="Raggruppa 501" clip-path="url(#clip-path-8)">
      <g id="Raggruppa_385" data-name="Raggruppa 385" transform="translate(93.815 -46.746)">
        <path id="Tracciato_388" data-name="Tracciato 388" d="M0,0A3.056,3.056,0,0,1-3.055,3.057,3.056,3.056,0,0,1-6.109,0,3.055,3.055,0,0,1-3.055-3.055,3.055,3.055,0,0,1,0,0" fill="#fff" stroke="#e12614" stroke-width="0.587"/>
      </g>
      <g id="Raggruppa_386" data-name="Raggruppa 386" transform="translate(93.815 -46.746)">
        <path id="Tracciato_389" data-name="Tracciato 389" d="M0,0A3.056,3.056,0,0,1-3.055,3.057,3.056,3.056,0,0,1-6.109,0,3.055,3.055,0,0,1-3.055-3.055,3.055,3.055,0,0,1,0,0Z" fill="none" stroke="#e12614" stroke-width="0.726"/>
      </g>
      <g id="Raggruppa_387" data-name="Raggruppa 387" transform="translate(87.704 -120.074)">
        <path id="Tracciato_390" data-name="Tracciato 390" d="M0,0A3.056,3.056,0,0,1-3.054,3.056,3.056,3.056,0,0,1-6.11,0,3.056,3.056,0,0,1-3.054-3.055,3.056,3.056,0,0,1,0,0" fill="#fff" stroke="#e12614" stroke-width="0.587"/>
      </g>
      <g id="Raggruppa_388" data-name="Raggruppa 388" transform="translate(87.704 -120.074)">
        <path id="Tracciato_391" data-name="Tracciato 391" d="M0,0A3.056,3.056,0,0,1-3.054,3.056,3.056,3.056,0,0,1-6.11,0,3.056,3.056,0,0,1-3.054-3.055,3.056,3.056,0,0,1,0,0Z" fill="none" stroke="#e12614" stroke-width="0.726"/>
      </g>
      <g id="Raggruppa_389" data-name="Raggruppa 389" transform="translate(87.704 -113.962)">
        <path id="Tracciato_392" data-name="Tracciato 392" d="M0,0A3.056,3.056,0,0,1-3.054,3.055,3.056,3.056,0,0,1-6.11,0,3.056,3.056,0,0,1-3.054-3.056,3.056,3.056,0,0,1,0,0" fill="#fff" stroke="#e12614" stroke-width="0.587"/>
      </g>
      <g id="Raggruppa_390" data-name="Raggruppa 390" transform="translate(87.704 -113.962)">
        <path id="Tracciato_393" data-name="Tracciato 393" d="M0,0A3.056,3.056,0,0,1-3.054,3.055,3.056,3.056,0,0,1-6.11,0,3.056,3.056,0,0,1-3.054-3.056,3.056,3.056,0,0,1,0,0Z" fill="none" stroke="#e12614" stroke-width="0.726"/>
      </g>
      <g id="Raggruppa_391" data-name="Raggruppa 391" transform="translate(87.704 -107.852)">
        <path id="Tracciato_394" data-name="Tracciato 394" d="M0,0A3.054,3.054,0,0,1-3.054,3.054,3.053,3.053,0,0,1-6.11,0,3.056,3.056,0,0,1-3.054-3.055,3.056,3.056,0,0,1,0,0" fill="#fff" stroke="#e12614" stroke-width="0.587"/>
      </g>
      <g id="Raggruppa_392" data-name="Raggruppa 392" transform="translate(87.704 -107.852)">
        <path id="Tracciato_395" data-name="Tracciato 395" d="M0,0A3.054,3.054,0,0,1-3.054,3.054,3.053,3.053,0,0,1-6.11,0,3.056,3.056,0,0,1-3.054-3.055,3.056,3.056,0,0,1,0,0Z" fill="none" stroke="#e12614" stroke-width="0.726"/>
      </g>
      <g id="Raggruppa_393" data-name="Raggruppa 393" transform="translate(87.704 -101.742)">
        <path id="Tracciato_396" data-name="Tracciato 396" d="M0,0A3.055,3.055,0,0,1-3.054,3.056,3.055,3.055,0,0,1-6.11,0,3.056,3.056,0,0,1-3.054-3.055,3.056,3.056,0,0,1,0,0" fill="#fff" stroke="#e12614" stroke-width="0.587"/>
      </g>
      <g id="Raggruppa_394" data-name="Raggruppa 394" transform="translate(87.704 -101.742)">
        <path id="Tracciato_397" data-name="Tracciato 397" d="M0,0A3.055,3.055,0,0,1-3.054,3.056,3.055,3.055,0,0,1-6.11,0,3.056,3.056,0,0,1-3.054-3.055,3.056,3.056,0,0,1,0,0Z" fill="none" stroke="#e12614" stroke-width="0.726"/>
      </g>
      <g id="Raggruppa_395" data-name="Raggruppa 395" transform="translate(87.704 -95.631)">
        <path id="Tracciato_398" data-name="Tracciato 398" d="M0,0A3.056,3.056,0,0,1-3.054,3.055,3.056,3.056,0,0,1-6.11,0,3.056,3.056,0,0,1-3.054-3.056,3.056,3.056,0,0,1,0,0" fill="#fff" stroke="#e12614" stroke-width="0.587"/>
      </g>
      <g id="Raggruppa_396" data-name="Raggruppa 396" transform="translate(87.704 -95.631)">
        <path id="Tracciato_399" data-name="Tracciato 399" d="M0,0A3.056,3.056,0,0,1-3.054,3.055,3.056,3.056,0,0,1-6.11,0,3.056,3.056,0,0,1-3.054-3.056,3.056,3.056,0,0,1,0,0Z" fill="none" stroke="#e12614" stroke-width="0.726"/>
      </g>
      <g id="Raggruppa_397" data-name="Raggruppa 397" transform="translate(87.704 -89.521)">
        <path id="Tracciato_400" data-name="Tracciato 400" d="M0,0A3.055,3.055,0,0,1-3.054,3.055,3.055,3.055,0,0,1-6.11,0,3.056,3.056,0,0,1-3.054-3.055,3.056,3.056,0,0,1,0,0" fill="#fff" stroke="#e12614" stroke-width="0.587"/>
      </g>
      <g id="Raggruppa_398" data-name="Raggruppa 398" transform="translate(87.704 -89.521)">
        <path id="Tracciato_401" data-name="Tracciato 401" d="M0,0A3.055,3.055,0,0,1-3.054,3.055,3.055,3.055,0,0,1-6.11,0,3.056,3.056,0,0,1-3.054-3.055,3.056,3.056,0,0,1,0,0Z" fill="none" stroke="#e12614" stroke-width="0.726"/>
      </g>
      <g id="Raggruppa_399" data-name="Raggruppa 399" transform="translate(87.704 -83.409)">
        <path id="Tracciato_402" data-name="Tracciato 402" d="M0,0A3.057,3.057,0,0,1-3.054,3.056,3.056,3.056,0,0,1-6.11,0,3.056,3.056,0,0,1-3.054-3.056,3.056,3.056,0,0,1,0,0" fill="#fff" stroke="#e12614" stroke-width="0.587"/>
      </g>
      <g id="Raggruppa_400" data-name="Raggruppa 400" transform="translate(87.704 -83.409)">
        <path id="Tracciato_403" data-name="Tracciato 403" d="M0,0A3.057,3.057,0,0,1-3.054,3.056,3.056,3.056,0,0,1-6.11,0,3.056,3.056,0,0,1-3.054-3.056,3.056,3.056,0,0,1,0,0Z" fill="none" stroke="#e12614" stroke-width="0.726"/>
      </g>
      <g id="Raggruppa_401" data-name="Raggruppa 401" transform="translate(87.704 -77.299)">
        <path id="Tracciato_404" data-name="Tracciato 404" d="M0,0A3.056,3.056,0,0,1-3.054,3.056,3.056,3.056,0,0,1-6.11,0,3.056,3.056,0,0,1-3.054-3.055,3.056,3.056,0,0,1,0,0" fill="#fff" stroke="#e12614" stroke-width="0.587"/>
      </g>
      <g id="Raggruppa_402" data-name="Raggruppa 402" transform="translate(87.704 -77.299)">
        <path id="Tracciato_405" data-name="Tracciato 405" d="M0,0A3.056,3.056,0,0,1-3.054,3.056,3.056,3.056,0,0,1-6.11,0,3.056,3.056,0,0,1-3.054-3.055,3.056,3.056,0,0,1,0,0Z" fill="none" stroke="#e12614" stroke-width="0.726"/>
      </g>
      <g id="Raggruppa_403" data-name="Raggruppa 403" transform="translate(87.704 -71.189)">
        <path id="Tracciato_406" data-name="Tracciato 406" d="M0,0A3.056,3.056,0,0,1-3.054,3.057,3.056,3.056,0,0,1-6.11,0,3.056,3.056,0,0,1-3.054-3.055,3.056,3.056,0,0,1,0,0" fill="#fff" stroke="#e12614" stroke-width="0.587"/>
      </g>
      <g id="Raggruppa_404" data-name="Raggruppa 404" transform="translate(87.704 -71.189)">
        <path id="Tracciato_407" data-name="Tracciato 407" d="M0,0A3.056,3.056,0,0,1-3.054,3.057,3.056,3.056,0,0,1-6.11,0,3.056,3.056,0,0,1-3.054-3.055,3.056,3.056,0,0,1,0,0Z" fill="none" stroke="#e12614" stroke-width="0.726"/>
      </g>
      <g id="Raggruppa_405" data-name="Raggruppa 405" transform="translate(87.704 -65.078)">
        <path id="Tracciato_408" data-name="Tracciato 408" d="M0,0A3.055,3.055,0,0,1-3.054,3.056,3.055,3.055,0,0,1-6.11,0,3.056,3.056,0,0,1-3.054-3.055,3.056,3.056,0,0,1,0,0" fill="#fff" stroke="#e12614" stroke-width="0.587"/>
      </g>
      <g id="Raggruppa_406" data-name="Raggruppa 406" transform="translate(87.704 -65.078)">
        <path id="Tracciato_409" data-name="Tracciato 409" d="M0,0A3.055,3.055,0,0,1-3.054,3.056,3.055,3.055,0,0,1-6.11,0,3.056,3.056,0,0,1-3.054-3.055,3.056,3.056,0,0,1,0,0Z" fill="none" stroke="#e12614" stroke-width="0.726"/>
      </g>
      <g id="Raggruppa_407" data-name="Raggruppa 407" transform="translate(87.704 -58.967)">
        <path id="Tracciato_410" data-name="Tracciato 410" d="M0,0A3.057,3.057,0,0,1-3.054,3.057,3.057,3.057,0,0,1-6.11,0,3.056,3.056,0,0,1-3.054-3.055,3.056,3.056,0,0,1,0,0" fill="#fff" stroke="#e12614" stroke-width="0.587"/>
      </g>
      <g id="Raggruppa_408" data-name="Raggruppa 408" transform="translate(87.704 -58.967)">
        <path id="Tracciato_411" data-name="Tracciato 411" d="M0,0A3.057,3.057,0,0,1-3.054,3.057,3.057,3.057,0,0,1-6.11,0,3.056,3.056,0,0,1-3.054-3.055,3.056,3.056,0,0,1,0,0Z" fill="none" stroke="#e12614" stroke-width="0.726"/>
      </g>
      <g id="Raggruppa_409" data-name="Raggruppa 409" transform="translate(87.704 -52.856)">
        <path id="Tracciato_412" data-name="Tracciato 412" d="M0,0A3.056,3.056,0,0,1-3.054,3.056,3.056,3.056,0,0,1-6.11,0,3.056,3.056,0,0,1-3.054-3.056,3.057,3.057,0,0,1,0,0" fill="#fff" stroke="#e12614" stroke-width="0.587"/>
      </g>
      <g id="Raggruppa_410" data-name="Raggruppa 410" transform="translate(87.704 -52.856)">
        <path id="Tracciato_413" data-name="Tracciato 413" d="M0,0A3.056,3.056,0,0,1-3.054,3.056,3.056,3.056,0,0,1-6.11,0,3.056,3.056,0,0,1-3.054-3.056,3.057,3.057,0,0,1,0,0Z" fill="none" stroke="#e12614" stroke-width="0.726"/>
      </g>
      <g id="Raggruppa_411" data-name="Raggruppa 411" transform="translate(87.704 -46.746)">
        <path id="Tracciato_414" data-name="Tracciato 414" d="M0,0A3.057,3.057,0,0,1-3.054,3.057,3.057,3.057,0,0,1-6.11,0,3.056,3.056,0,0,1-3.054-3.055,3.056,3.056,0,0,1,0,0" fill="#fff" stroke="#e12614" stroke-width="0.587"/>
      </g>
      <g id="Raggruppa_412" data-name="Raggruppa 412" transform="translate(87.704 -46.746)">
        <path id="Tracciato_415" data-name="Tracciato 415" d="M0,0A3.057,3.057,0,0,1-3.054,3.057,3.057,3.057,0,0,1-6.11,0,3.056,3.056,0,0,1-3.054-3.055,3.056,3.056,0,0,1,0,0Z" fill="none" stroke="#e12614" stroke-width="0.726"/>
      </g>
      <g id="Raggruppa_413" data-name="Raggruppa 413" transform="translate(81.594 -107.852)">
        <path id="Tracciato_416" data-name="Tracciato 416" d="M0,0A3.054,3.054,0,0,1-3.054,3.054,3.054,3.054,0,0,1-6.111,0,3.056,3.056,0,0,1-3.054-3.055,3.056,3.056,0,0,1,0,0" fill="#fff" stroke="#e12614" stroke-width="0.587"/>
      </g>
      <g id="Raggruppa_414" data-name="Raggruppa 414" transform="translate(81.594 -107.852)">
        <path id="Tracciato_417" data-name="Tracciato 417" d="M0,0A3.054,3.054,0,0,1-3.054,3.054,3.054,3.054,0,0,1-6.111,0,3.056,3.056,0,0,1-3.054-3.055,3.056,3.056,0,0,1,0,0Z" fill="none" stroke="#e12614" stroke-width="0.726"/>
      </g>
      <g id="Raggruppa_415" data-name="Raggruppa 415" transform="translate(81.594 -101.742)">
        <path id="Tracciato_418" data-name="Tracciato 418" d="M0,0A3.055,3.055,0,0,1-3.054,3.056,3.056,3.056,0,0,1-6.111,0,3.056,3.056,0,0,1-3.054-3.055,3.056,3.056,0,0,1,0,0" fill="#fff" stroke="#e12614" stroke-width="0.587"/>
      </g>
      <g id="Raggruppa_416" data-name="Raggruppa 416" transform="translate(81.594 -101.742)">
        <path id="Tracciato_419" data-name="Tracciato 419" d="M0,0A3.055,3.055,0,0,1-3.054,3.056,3.056,3.056,0,0,1-6.111,0,3.056,3.056,0,0,1-3.054-3.055,3.056,3.056,0,0,1,0,0Z" fill="none" stroke="#e12614" stroke-width="0.726"/>
      </g>
      <g id="Raggruppa_417" data-name="Raggruppa 417" transform="translate(81.594 -95.631)">
        <path id="Tracciato_420" data-name="Tracciato 420" d="M0,0A3.056,3.056,0,0,1-3.054,3.055,3.056,3.056,0,0,1-6.111,0,3.057,3.057,0,0,1-3.054-3.056,3.056,3.056,0,0,1,0,0" fill="#fff" stroke="#e12614" stroke-width="0.587"/>
      </g>
      <g id="Raggruppa_418" data-name="Raggruppa 418" transform="translate(81.594 -95.631)">
        <path id="Tracciato_421" data-name="Tracciato 421" d="M0,0A3.056,3.056,0,0,1-3.054,3.055,3.056,3.056,0,0,1-6.111,0,3.057,3.057,0,0,1-3.054-3.056,3.056,3.056,0,0,1,0,0Z" fill="none" stroke="#e12614" stroke-width="0.726"/>
      </g>
      <g id="Raggruppa_419" data-name="Raggruppa 419" transform="translate(81.594 -89.521)">
        <path id="Tracciato_422" data-name="Tracciato 422" d="M0,0A3.055,3.055,0,0,1-3.054,3.055,3.056,3.056,0,0,1-6.111,0,3.056,3.056,0,0,1-3.054-3.055,3.056,3.056,0,0,1,0,0" fill="#fff" stroke="#e12614" stroke-width="0.587"/>
      </g>
      <g id="Raggruppa_420" data-name="Raggruppa 420" transform="translate(81.594 -89.521)">
        <path id="Tracciato_423" data-name="Tracciato 423" d="M0,0A3.055,3.055,0,0,1-3.054,3.055,3.056,3.056,0,0,1-6.111,0,3.056,3.056,0,0,1-3.054-3.055,3.056,3.056,0,0,1,0,0Z" fill="none" stroke="#e12614" stroke-width="0.726"/>
      </g>
      <g id="Raggruppa_421" data-name="Raggruppa 421" transform="translate(81.594 -83.409)">
        <path id="Tracciato_424" data-name="Tracciato 424" d="M0,0A3.057,3.057,0,0,1-3.054,3.056,3.057,3.057,0,0,1-6.111,0,3.057,3.057,0,0,1-3.054-3.056,3.056,3.056,0,0,1,0,0" fill="#fff" stroke="#e12614" stroke-width="0.587"/>
      </g>
      <g id="Raggruppa_422" data-name="Raggruppa 422" transform="translate(81.594 -83.409)">
        <path id="Tracciato_425" data-name="Tracciato 425" d="M0,0A3.057,3.057,0,0,1-3.054,3.056,3.057,3.057,0,0,1-6.111,0,3.057,3.057,0,0,1-3.054-3.056,3.056,3.056,0,0,1,0,0Z" fill="none" stroke="#e12614" stroke-width="0.726"/>
      </g>
      <g id="Raggruppa_423" data-name="Raggruppa 423" transform="translate(81.594 -77.299)">
        <path id="Tracciato_426" data-name="Tracciato 426" d="M0,0A3.056,3.056,0,0,1-3.054,3.056,3.057,3.057,0,0,1-6.111,0,3.056,3.056,0,0,1-3.054-3.055,3.056,3.056,0,0,1,0,0" fill="#fff" stroke="#e12614" stroke-width="0.587"/>
      </g>
      <g id="Raggruppa_424" data-name="Raggruppa 424" transform="translate(81.594 -77.299)">
        <path id="Tracciato_427" data-name="Tracciato 427" d="M0,0A3.056,3.056,0,0,1-3.054,3.056,3.057,3.057,0,0,1-6.111,0,3.056,3.056,0,0,1-3.054-3.055,3.056,3.056,0,0,1,0,0Z" fill="none" stroke="#e12614" stroke-width="0.726"/>
      </g>
      <g id="Raggruppa_425" data-name="Raggruppa 425" transform="translate(81.594 -71.189)">
        <path id="Tracciato_428" data-name="Tracciato 428" d="M0,0A3.056,3.056,0,0,1-3.054,3.057,3.057,3.057,0,0,1-6.111,0,3.056,3.056,0,0,1-3.054-3.055,3.056,3.056,0,0,1,0,0" fill="#fff" stroke="#e12614" stroke-width="0.587"/>
      </g>
      <g id="Raggruppa_426" data-name="Raggruppa 426" transform="translate(81.594 -71.189)">
        <path id="Tracciato_429" data-name="Tracciato 429" d="M0,0A3.056,3.056,0,0,1-3.054,3.057,3.057,3.057,0,0,1-6.111,0,3.056,3.056,0,0,1-3.054-3.055,3.056,3.056,0,0,1,0,0Z" fill="none" stroke="#e12614" stroke-width="0.726"/>
      </g>
      <g id="Raggruppa_427" data-name="Raggruppa 427" transform="translate(81.594 -65.078)">
        <path id="Tracciato_430" data-name="Tracciato 430" d="M0,0A3.055,3.055,0,0,1-3.054,3.056,3.056,3.056,0,0,1-6.111,0,3.056,3.056,0,0,1-3.054-3.055,3.056,3.056,0,0,1,0,0" fill="#fff" stroke="#e12614" stroke-width="0.587"/>
      </g>
      <g id="Raggruppa_428" data-name="Raggruppa 428" transform="translate(81.594 -65.078)">
        <path id="Tracciato_431" data-name="Tracciato 431" d="M0,0A3.055,3.055,0,0,1-3.054,3.056,3.056,3.056,0,0,1-6.111,0,3.056,3.056,0,0,1-3.054-3.055,3.056,3.056,0,0,1,0,0Z" fill="none" stroke="#e12614" stroke-width="0.726"/>
      </g>
      <g id="Raggruppa_429" data-name="Raggruppa 429" transform="translate(81.594 -58.967)">
        <path id="Tracciato_432" data-name="Tracciato 432" d="M0,0A3.057,3.057,0,0,1-3.054,3.057,3.057,3.057,0,0,1-6.111,0,3.056,3.056,0,0,1-3.054-3.055,3.056,3.056,0,0,1,0,0" fill="#fff" stroke="#e12614" stroke-width="0.587"/>
      </g>
      <g id="Raggruppa_430" data-name="Raggruppa 430" transform="translate(81.594 -58.967)">
        <path id="Tracciato_433" data-name="Tracciato 433" d="M0,0A3.057,3.057,0,0,1-3.054,3.057,3.057,3.057,0,0,1-6.111,0,3.056,3.056,0,0,1-3.054-3.055,3.056,3.056,0,0,1,0,0Z" fill="none" stroke="#e12614" stroke-width="0.726"/>
      </g>
      <g id="Raggruppa_431" data-name="Raggruppa 431" transform="translate(81.594 -52.856)">
        <path id="Tracciato_434" data-name="Tracciato 434" d="M0,0A3.056,3.056,0,0,1-3.054,3.056,3.057,3.057,0,0,1-6.111,0,3.057,3.057,0,0,1-3.054-3.056,3.057,3.057,0,0,1,0,0" fill="#fff" stroke="#e12614" stroke-width="0.587"/>
      </g>
      <g id="Raggruppa_432" data-name="Raggruppa 432" transform="translate(81.594 -52.856)">
        <path id="Tracciato_435" data-name="Tracciato 435" d="M0,0A3.056,3.056,0,0,1-3.054,3.056,3.057,3.057,0,0,1-6.111,0,3.057,3.057,0,0,1-3.054-3.056,3.057,3.057,0,0,1,0,0Z" fill="none" stroke="#e12614" stroke-width="0.726"/>
      </g>
      <g id="Raggruppa_433" data-name="Raggruppa 433" transform="translate(81.594 -46.746)">
        <path id="Tracciato_436" data-name="Tracciato 436" d="M0,0A3.057,3.057,0,0,1-3.054,3.057,3.057,3.057,0,0,1-6.111,0,3.056,3.056,0,0,1-3.054-3.055,3.056,3.056,0,0,1,0,0" fill="#f28b70" stroke="#e12614" stroke-width="0.587"/>
      </g>
      <g id="Raggruppa_434" data-name="Raggruppa 434" transform="translate(81.594 -46.746)">
        <path id="Tracciato_437" data-name="Tracciato 437" d="M0,0A3.057,3.057,0,0,1-3.054,3.057,3.057,3.057,0,0,1-6.111,0,3.056,3.056,0,0,1-3.054-3.055,3.056,3.056,0,0,1,0,0Z" fill="none" stroke="#e12614" stroke-width="0.726"/>
      </g>
      <g id="Raggruppa_435" data-name="Raggruppa 435" transform="translate(75.483 -89.521)">
        <path id="Tracciato_438" data-name="Tracciato 438" d="M0,0A3.055,3.055,0,0,1-3.055,3.055,3.055,3.055,0,0,1-6.11,0,3.056,3.056,0,0,1-3.055-3.055,3.055,3.055,0,0,1,0,0" fill="#f28b70" stroke="#e12614" stroke-width="0.587"/>
      </g>
      <g id="Raggruppa_436" data-name="Raggruppa 436" transform="translate(75.483 -89.521)">
        <path id="Tracciato_439" data-name="Tracciato 439" d="M0,0A3.055,3.055,0,0,1-3.055,3.055,3.055,3.055,0,0,1-6.11,0,3.056,3.056,0,0,1-3.055-3.055,3.055,3.055,0,0,1,0,0Z" fill="none" stroke="#e12614" stroke-width="0.726"/>
      </g>
      <g id="Raggruppa_437" data-name="Raggruppa 437" transform="translate(75.483 -83.409)">
        <path id="Tracciato_440" data-name="Tracciato 440" d="M0,0A3.056,3.056,0,0,1-3.055,3.056,3.057,3.057,0,0,1-6.11,0,3.056,3.056,0,0,1-3.055-3.056,3.056,3.056,0,0,1,0,0" fill="#f28b70" stroke="#e12614" stroke-width="0.587"/>
      </g>
      <g id="Raggruppa_438" data-name="Raggruppa 438" transform="translate(75.483 -83.409)">
        <path id="Tracciato_441" data-name="Tracciato 441" d="M0,0A3.056,3.056,0,0,1-3.055,3.056,3.057,3.057,0,0,1-6.11,0,3.056,3.056,0,0,1-3.055-3.056,3.056,3.056,0,0,1,0,0Z" fill="none" stroke="#e12614" stroke-width="0.726"/>
      </g>
      <g id="Raggruppa_439" data-name="Raggruppa 439" transform="translate(75.483 -77.299)">
        <path id="Tracciato_442" data-name="Tracciato 442" d="M0,0A3.056,3.056,0,0,1-3.055,3.056,3.056,3.056,0,0,1-6.11,0,3.056,3.056,0,0,1-3.055-3.055,3.055,3.055,0,0,1,0,0" fill="#f28b70" stroke="#e12614" stroke-width="0.587"/>
      </g>
      <g id="Raggruppa_440" data-name="Raggruppa 440" transform="translate(75.483 -77.299)">
        <path id="Tracciato_443" data-name="Tracciato 443" d="M0,0A3.056,3.056,0,0,1-3.055,3.056,3.056,3.056,0,0,1-6.11,0,3.056,3.056,0,0,1-3.055-3.055,3.055,3.055,0,0,1,0,0Z" fill="none" stroke="#e12614" stroke-width="0.726"/>
      </g>
      <g id="Raggruppa_441" data-name="Raggruppa 441" transform="translate(75.483 -71.189)">
        <path id="Tracciato_444" data-name="Tracciato 444" d="M0,0A3.056,3.056,0,0,1-3.055,3.057,3.056,3.056,0,0,1-6.11,0,3.056,3.056,0,0,1-3.055-3.055,3.055,3.055,0,0,1,0,0" fill="#f28b70" stroke="#e12614" stroke-width="0.587"/>
      </g>
      <g id="Raggruppa_442" data-name="Raggruppa 442" transform="translate(75.483 -71.189)">
        <path id="Tracciato_445" data-name="Tracciato 445" d="M0,0A3.056,3.056,0,0,1-3.055,3.057,3.056,3.056,0,0,1-6.11,0,3.056,3.056,0,0,1-3.055-3.055,3.055,3.055,0,0,1,0,0Z" fill="none" stroke="#e12614" stroke-width="0.726"/>
      </g>
      <g id="Raggruppa_443" data-name="Raggruppa 443" transform="translate(75.483 -65.078)">
        <path id="Tracciato_446" data-name="Tracciato 446" d="M0,0A3.055,3.055,0,0,1-3.055,3.056,3.056,3.056,0,0,1-6.11,0,3.056,3.056,0,0,1-3.055-3.055,3.055,3.055,0,0,1,0,0" fill="#f28b70" stroke="#e12614" stroke-width="0.587"/>
      </g>
      <g id="Raggruppa_444" data-name="Raggruppa 444" transform="translate(75.483 -65.078)">
        <path id="Tracciato_447" data-name="Tracciato 447" d="M0,0A3.055,3.055,0,0,1-3.055,3.056,3.056,3.056,0,0,1-6.11,0,3.056,3.056,0,0,1-3.055-3.055,3.055,3.055,0,0,1,0,0Z" fill="none" stroke="#e12614" stroke-width="0.726"/>
      </g>
      <g id="Raggruppa_445" data-name="Raggruppa 445" transform="translate(75.483 -58.967)">
        <path id="Tracciato_448" data-name="Tracciato 448" d="M0,0A3.056,3.056,0,0,1-3.055,3.057,3.057,3.057,0,0,1-6.11,0,3.056,3.056,0,0,1-3.055-3.055,3.055,3.055,0,0,1,0,0" fill="#f28b70" stroke="#e12614" stroke-width="0.587"/>
      </g>
      <g id="Raggruppa_446" data-name="Raggruppa 446" transform="translate(75.483 -58.967)">
        <path id="Tracciato_449" data-name="Tracciato 449" d="M0,0A3.056,3.056,0,0,1-3.055,3.057,3.057,3.057,0,0,1-6.11,0,3.056,3.056,0,0,1-3.055-3.055,3.055,3.055,0,0,1,0,0Z" fill="none" stroke="#e12614" stroke-width="0.726"/>
      </g>
      <g id="Raggruppa_447" data-name="Raggruppa 447" transform="translate(75.483 -52.856)">
        <path id="Tracciato_450" data-name="Tracciato 450" d="M0,0A3.056,3.056,0,0,1-3.055,3.056,3.056,3.056,0,0,1-6.11,0,3.057,3.057,0,0,1-3.055-3.056,3.056,3.056,0,0,1,0,0" fill="#f28b70" stroke="#e12614" stroke-width="0.587"/>
      </g>
      <g id="Raggruppa_448" data-name="Raggruppa 448" transform="translate(75.483 -52.856)">
        <path id="Tracciato_451" data-name="Tracciato 451" d="M0,0A3.056,3.056,0,0,1-3.055,3.056,3.056,3.056,0,0,1-6.11,0,3.057,3.057,0,0,1-3.055-3.056,3.056,3.056,0,0,1,0,0Z" fill="none" stroke="#e12614" stroke-width="0.726"/>
      </g>
      <g id="Raggruppa_449" data-name="Raggruppa 449" transform="translate(75.483 -46.746)">
        <path id="Tracciato_452" data-name="Tracciato 452" d="M0,0A3.056,3.056,0,0,1-3.055,3.057,3.057,3.057,0,0,1-6.11,0,3.056,3.056,0,0,1-3.055-3.055,3.055,3.055,0,0,1,0,0" fill="#f28b70" stroke="#e12614" stroke-width="0.587"/>
      </g>
      <g id="Raggruppa_450" data-name="Raggruppa 450" transform="translate(75.483 -46.746)">
        <path id="Tracciato_453" data-name="Tracciato 453" d="M0,0A3.056,3.056,0,0,1-3.055,3.057,3.057,3.057,0,0,1-6.11,0,3.056,3.056,0,0,1-3.055-3.055,3.055,3.055,0,0,1,0,0Z" fill="none" stroke="#e12614" stroke-width="0.726"/>
      </g>
      <g id="Raggruppa_451" data-name="Raggruppa 451" transform="translate(69.373 -89.521)">
        <path id="Tracciato_454" data-name="Tracciato 454" d="M0,0A3.056,3.056,0,0,1-3.056,3.055,3.054,3.054,0,0,1-6.11,0,3.055,3.055,0,0,1-3.056-3.055,3.056,3.056,0,0,1,0,0" fill="#f28b70" stroke="#e12614" stroke-width="0.587"/>
      </g>
      <g id="Raggruppa_452" data-name="Raggruppa 452" transform="translate(69.373 -89.521)">
        <path id="Tracciato_455" data-name="Tracciato 455" d="M0,0A3.056,3.056,0,0,1-3.056,3.055,3.054,3.054,0,0,1-6.11,0,3.055,3.055,0,0,1-3.056-3.055,3.056,3.056,0,0,1,0,0Z" fill="none" stroke="#e12614" stroke-width="0.726"/>
      </g>
      <g id="Raggruppa_453" data-name="Raggruppa 453" transform="translate(69.373 -83.409)">
        <path id="Tracciato_456" data-name="Tracciato 456" d="M0,0A3.057,3.057,0,0,1-3.056,3.056,3.056,3.056,0,0,1-6.11,0,3.055,3.055,0,0,1-3.056-3.056,3.056,3.056,0,0,1,0,0" fill="#f28b70" stroke="#e12614" stroke-width="0.587"/>
      </g>
      <g id="Raggruppa_454" data-name="Raggruppa 454" transform="translate(69.373 -83.409)">
        <path id="Tracciato_457" data-name="Tracciato 457" d="M0,0A3.057,3.057,0,0,1-3.056,3.056,3.056,3.056,0,0,1-6.11,0,3.055,3.055,0,0,1-3.056-3.056,3.056,3.056,0,0,1,0,0Z" fill="none" stroke="#e12614" stroke-width="0.726"/>
      </g>
      <g id="Raggruppa_455" data-name="Raggruppa 455" transform="translate(69.373 -77.299)">
        <path id="Tracciato_458" data-name="Tracciato 458" d="M0,0A3.056,3.056,0,0,1-3.056,3.056,3.055,3.055,0,0,1-6.11,0,3.055,3.055,0,0,1-3.056-3.055,3.056,3.056,0,0,1,0,0" fill="#f28b70" stroke="#e12614" stroke-width="0.587"/>
      </g>
      <g id="Raggruppa_456" data-name="Raggruppa 456" transform="translate(69.373 -77.299)">
        <path id="Tracciato_459" data-name="Tracciato 459" d="M0,0A3.056,3.056,0,0,1-3.056,3.056,3.055,3.055,0,0,1-6.11,0,3.055,3.055,0,0,1-3.056-3.055,3.056,3.056,0,0,1,0,0Z" fill="none" stroke="#e12614" stroke-width="0.726"/>
      </g>
      <g id="Raggruppa_457" data-name="Raggruppa 457" transform="translate(69.373 -71.189)">
        <path id="Tracciato_460" data-name="Tracciato 460" d="M0,0A3.057,3.057,0,0,1-3.056,3.057,3.056,3.056,0,0,1-6.11,0,3.055,3.055,0,0,1-3.056-3.055,3.056,3.056,0,0,1,0,0" fill="#f28b70" stroke="#e12614" stroke-width="0.587"/>
      </g>
      <g id="Raggruppa_458" data-name="Raggruppa 458" transform="translate(69.373 -71.189)">
        <path id="Tracciato_461" data-name="Tracciato 461" d="M0,0A3.057,3.057,0,0,1-3.056,3.057,3.056,3.056,0,0,1-6.11,0,3.055,3.055,0,0,1-3.056-3.055,3.056,3.056,0,0,1,0,0Z" fill="none" stroke="#e12614" stroke-width="0.726"/>
      </g>
      <g id="Raggruppa_459" data-name="Raggruppa 459" transform="translate(69.373 -65.078)">
        <path id="Tracciato_462" data-name="Tracciato 462" d="M0,0A3.056,3.056,0,0,1-3.056,3.056,3.055,3.055,0,0,1-6.11,0,3.055,3.055,0,0,1-3.056-3.055,3.056,3.056,0,0,1,0,0" fill="#f28b70" stroke="#e12614" stroke-width="0.587"/>
      </g>
      <g id="Raggruppa_460" data-name="Raggruppa 460" transform="translate(69.373 -65.078)">
        <path id="Tracciato_463" data-name="Tracciato 463" d="M0,0A3.056,3.056,0,0,1-3.056,3.056,3.055,3.055,0,0,1-6.11,0,3.055,3.055,0,0,1-3.056-3.055,3.056,3.056,0,0,1,0,0Z" fill="none" stroke="#e12614" stroke-width="0.726"/>
      </g>
      <g id="Raggruppa_461" data-name="Raggruppa 461" transform="translate(69.373 -58.967)">
        <path id="Tracciato_464" data-name="Tracciato 464" d="M0,0A3.057,3.057,0,0,1-3.056,3.057,3.056,3.056,0,0,1-6.11,0,3.055,3.055,0,0,1-3.056-3.055,3.056,3.056,0,0,1,0,0" fill="#f28b70" stroke="#e12614" stroke-width="0.587"/>
      </g>
      <g id="Raggruppa_462" data-name="Raggruppa 462" transform="translate(69.373 -58.967)">
        <path id="Tracciato_465" data-name="Tracciato 465" d="M0,0A3.057,3.057,0,0,1-3.056,3.057,3.056,3.056,0,0,1-6.11,0,3.055,3.055,0,0,1-3.056-3.055,3.056,3.056,0,0,1,0,0Z" fill="none" stroke="#e12614" stroke-width="0.726"/>
      </g>
      <g id="Raggruppa_463" data-name="Raggruppa 463" transform="translate(69.373 -52.856)">
        <path id="Tracciato_466" data-name="Tracciato 466" d="M0,0A3.056,3.056,0,0,1-3.056,3.056,3.055,3.055,0,0,1-6.11,0,3.056,3.056,0,0,1-3.056-3.056,3.057,3.057,0,0,1,0,0" fill="#f28b70" stroke="#e12614" stroke-width="0.587"/>
      </g>
      <g id="Raggruppa_464" data-name="Raggruppa 464" transform="translate(69.373 -52.856)">
        <path id="Tracciato_467" data-name="Tracciato 467" d="M0,0A3.056,3.056,0,0,1-3.056,3.056,3.055,3.055,0,0,1-6.11,0,3.056,3.056,0,0,1-3.056-3.056,3.057,3.057,0,0,1,0,0Z" fill="none" stroke="#e12614" stroke-width="0.726"/>
      </g>
      <g id="Raggruppa_465" data-name="Raggruppa 465" transform="translate(69.373 -46.746)">
        <path id="Tracciato_468" data-name="Tracciato 468" d="M0,0A3.057,3.057,0,0,1-3.056,3.057,3.056,3.056,0,0,1-6.11,0,3.055,3.055,0,0,1-3.056-3.055,3.056,3.056,0,0,1,0,0" fill="#f28b70" stroke="#e12614" stroke-width="0.587"/>
      </g>
      <g id="Raggruppa_466" data-name="Raggruppa 466" transform="translate(69.373 -46.746)">
        <path id="Tracciato_469" data-name="Tracciato 469" d="M0,0A3.057,3.057,0,0,1-3.056,3.057,3.056,3.056,0,0,1-6.11,0,3.055,3.055,0,0,1-3.056-3.055,3.056,3.056,0,0,1,0,0Z" fill="none" stroke="#e12614" stroke-width="0.726"/>
      </g>
      <g id="Raggruppa_467" data-name="Raggruppa 467" transform="translate(63.263 -83.409)">
        <path id="Tracciato_470" data-name="Tracciato 470" d="M0,0A3.057,3.057,0,0,1-3.054,3.056,3.056,3.056,0,0,1-6.111,0,3.055,3.055,0,0,1-3.054-3.056,3.056,3.056,0,0,1,0,0" fill="#f28b70" stroke="#e12614" stroke-width="0.587"/>
      </g>
      <g id="Raggruppa_468" data-name="Raggruppa 468" transform="translate(63.263 -83.409)">
        <path id="Tracciato_471" data-name="Tracciato 471" d="M0,0A3.057,3.057,0,0,1-3.054,3.056,3.056,3.056,0,0,1-6.111,0,3.055,3.055,0,0,1-3.054-3.056,3.056,3.056,0,0,1,0,0Z" fill="none" stroke="#e12614" stroke-width="0.726"/>
      </g>
      <g id="Raggruppa_469" data-name="Raggruppa 469" transform="translate(63.263 -77.299)">
        <path id="Tracciato_472" data-name="Tracciato 472" d="M0,0A3.056,3.056,0,0,1-3.054,3.056,3.055,3.055,0,0,1-6.111,0,3.055,3.055,0,0,1-3.054-3.055,3.056,3.056,0,0,1,0,0" fill="#f28b70" stroke="#e12614" stroke-width="0.587"/>
      </g>
      <g id="Raggruppa_470" data-name="Raggruppa 470" transform="translate(63.263 -77.299)">
        <path id="Tracciato_473" data-name="Tracciato 473" d="M0,0A3.056,3.056,0,0,1-3.054,3.056,3.055,3.055,0,0,1-6.111,0,3.055,3.055,0,0,1-3.054-3.055,3.056,3.056,0,0,1,0,0Z" fill="none" stroke="#e12614" stroke-width="0.726"/>
      </g>
      <g id="Raggruppa_471" data-name="Raggruppa 471" transform="translate(63.263 -71.189)">
        <path id="Tracciato_474" data-name="Tracciato 474" d="M0,0A3.056,3.056,0,0,1-3.054,3.057,3.056,3.056,0,0,1-6.111,0,3.055,3.055,0,0,1-3.054-3.055,3.056,3.056,0,0,1,0,0" fill="#f28b70" stroke="#e12614" stroke-width="0.587"/>
      </g>
      <g id="Raggruppa_472" data-name="Raggruppa 472" transform="translate(63.263 -71.189)">
        <path id="Tracciato_475" data-name="Tracciato 475" d="M0,0A3.056,3.056,0,0,1-3.054,3.057,3.056,3.056,0,0,1-6.111,0,3.055,3.055,0,0,1-3.054-3.055,3.056,3.056,0,0,1,0,0Z" fill="none" stroke="#e12614" stroke-width="0.726"/>
      </g>
      <g id="Raggruppa_473" data-name="Raggruppa 473" transform="translate(63.263 -65.078)">
        <path id="Tracciato_476" data-name="Tracciato 476" d="M0,0A3.055,3.055,0,0,1-3.054,3.056,3.055,3.055,0,0,1-6.111,0,3.055,3.055,0,0,1-3.054-3.055,3.056,3.056,0,0,1,0,0" fill="#f28b70" stroke="#e12614" stroke-width="0.587"/>
      </g>
      <g id="Raggruppa_474" data-name="Raggruppa 474" transform="translate(63.263 -65.078)">
        <path id="Tracciato_477" data-name="Tracciato 477" d="M0,0A3.055,3.055,0,0,1-3.054,3.056,3.055,3.055,0,0,1-6.111,0,3.055,3.055,0,0,1-3.054-3.055,3.056,3.056,0,0,1,0,0Z" fill="none" stroke="#e12614" stroke-width="0.726"/>
      </g>
      <g id="Raggruppa_475" data-name="Raggruppa 475" transform="translate(63.263 -58.967)">
        <path id="Tracciato_478" data-name="Tracciato 478" d="M0,0A3.057,3.057,0,0,1-3.054,3.057,3.056,3.056,0,0,1-6.111,0,3.055,3.055,0,0,1-3.054-3.055,3.056,3.056,0,0,1,0,0" fill="#f28b70" stroke="#e12614" stroke-width="0.587"/>
      </g>
      <g id="Raggruppa_476" data-name="Raggruppa 476" transform="translate(63.263 -58.967)">
        <path id="Tracciato_479" data-name="Tracciato 479" d="M0,0A3.057,3.057,0,0,1-3.054,3.057,3.056,3.056,0,0,1-6.111,0,3.055,3.055,0,0,1-3.054-3.055,3.056,3.056,0,0,1,0,0Z" fill="none" stroke="#e12614" stroke-width="0.726"/>
      </g>
      <g id="Raggruppa_477" data-name="Raggruppa 477" transform="translate(63.263 -52.856)">
        <path id="Tracciato_480" data-name="Tracciato 480" d="M0,0A3.056,3.056,0,0,1-3.054,3.056,3.055,3.055,0,0,1-6.111,0,3.056,3.056,0,0,1-3.054-3.056,3.057,3.057,0,0,1,0,0" fill="#f28b70" stroke="#e12614" stroke-width="0.587"/>
      </g>
      <g id="Raggruppa_478" data-name="Raggruppa 478" transform="translate(63.263 -52.856)">
        <path id="Tracciato_481" data-name="Tracciato 481" d="M0,0A3.056,3.056,0,0,1-3.054,3.056,3.055,3.055,0,0,1-6.111,0,3.056,3.056,0,0,1-3.054-3.056,3.057,3.057,0,0,1,0,0Z" fill="none" stroke="#e12614" stroke-width="0.726"/>
      </g>
      <g id="Raggruppa_479" data-name="Raggruppa 479" transform="translate(63.263 -46.746)">
        <path id="Tracciato_482" data-name="Tracciato 482" d="M0,0A3.057,3.057,0,0,1-3.054,3.057,3.056,3.056,0,0,1-6.111,0,3.055,3.055,0,0,1-3.054-3.055,3.056,3.056,0,0,1,0,0" fill="#f28b70" stroke="#e12614" stroke-width="0.587"/>
      </g>
      <g id="Raggruppa_480" data-name="Raggruppa 480" transform="translate(63.263 -46.746)">
        <path id="Tracciato_483" data-name="Tracciato 483" d="M0,0A3.057,3.057,0,0,1-3.054,3.057,3.056,3.056,0,0,1-6.111,0,3.055,3.055,0,0,1-3.054-3.055,3.056,3.056,0,0,1,0,0Z" fill="none" stroke="#e12614" stroke-width="0.726"/>
      </g>
      <g id="Raggruppa_481" data-name="Raggruppa 481" transform="translate(57.152 -83.409)">
        <path id="Tracciato_484" data-name="Tracciato 484" d="M0,0A3.057,3.057,0,0,1-3.055,3.056,3.057,3.057,0,0,1-6.111,0,3.056,3.056,0,0,1-3.055-3.056,3.056,3.056,0,0,1,0,0" fill="#f28b70" stroke="#e12614" stroke-width="0.587"/>
      </g>
      <g id="Raggruppa_482" data-name="Raggruppa 482" transform="translate(57.152 -83.409)">
        <path id="Tracciato_485" data-name="Tracciato 485" d="M0,0A3.057,3.057,0,0,1-3.055,3.056,3.057,3.057,0,0,1-6.111,0,3.056,3.056,0,0,1-3.055-3.056,3.056,3.056,0,0,1,0,0Z" fill="none" stroke="#e12614" stroke-width="0.726"/>
      </g>
      <g id="Raggruppa_483" data-name="Raggruppa 483" transform="translate(57.152 -77.299)">
        <path id="Tracciato_486" data-name="Tracciato 486" d="M0,0A3.056,3.056,0,0,1-3.055,3.056,3.056,3.056,0,0,1-6.111,0,3.056,3.056,0,0,1-3.055-3.055,3.056,3.056,0,0,1,0,0" fill="#f28b70" stroke="#e12614" stroke-width="0.587"/>
      </g>
      <g id="Raggruppa_484" data-name="Raggruppa 484" transform="translate(57.152 -77.299)">
        <path id="Tracciato_487" data-name="Tracciato 487" d="M0,0A3.056,3.056,0,0,1-3.055,3.056,3.056,3.056,0,0,1-6.111,0,3.056,3.056,0,0,1-3.055-3.055,3.056,3.056,0,0,1,0,0Z" fill="none" stroke="#e12614" stroke-width="0.726"/>
      </g>
      <g id="Raggruppa_485" data-name="Raggruppa 485" transform="translate(57.152 -71.189)">
        <path id="Tracciato_488" data-name="Tracciato 488" d="M0,0A3.056,3.056,0,0,1-3.055,3.057,3.057,3.057,0,0,1-6.111,0,3.056,3.056,0,0,1-3.055-3.055,3.056,3.056,0,0,1,0,0" fill="#f28b70" stroke="#e12614" stroke-width="0.587"/>
      </g>
      <g id="Raggruppa_486" data-name="Raggruppa 486" transform="translate(57.152 -71.189)">
        <path id="Tracciato_489" data-name="Tracciato 489" d="M0,0A3.056,3.056,0,0,1-3.055,3.057,3.057,3.057,0,0,1-6.111,0,3.056,3.056,0,0,1-3.055-3.055,3.056,3.056,0,0,1,0,0Z" fill="none" stroke="#e12614" stroke-width="0.726"/>
      </g>
      <g id="Raggruppa_487" data-name="Raggruppa 487" transform="translate(57.152 -65.078)">
        <path id="Tracciato_490" data-name="Tracciato 490" d="M0,0A3.056,3.056,0,0,1-3.055,3.056,3.056,3.056,0,0,1-6.111,0,3.056,3.056,0,0,1-3.055-3.055,3.056,3.056,0,0,1,0,0" fill="#f28b70" stroke="#e12614" stroke-width="0.587"/>
      </g>
      <g id="Raggruppa_488" data-name="Raggruppa 488" transform="translate(57.152 -65.078)">
        <path id="Tracciato_491" data-name="Tracciato 491" d="M0,0A3.056,3.056,0,0,1-3.055,3.056,3.056,3.056,0,0,1-6.111,0,3.056,3.056,0,0,1-3.055-3.055,3.056,3.056,0,0,1,0,0Z" fill="none" stroke="#e12614" stroke-width="0.726"/>
      </g>
      <g id="Raggruppa_489" data-name="Raggruppa 489" transform="translate(57.152 -58.967)">
        <path id="Tracciato_492" data-name="Tracciato 492" d="M0,0A3.057,3.057,0,0,1-3.055,3.057,3.057,3.057,0,0,1-6.111,0,3.056,3.056,0,0,1-3.055-3.055,3.056,3.056,0,0,1,0,0" fill="#f28b70" stroke="#e12614" stroke-width="0.587"/>
      </g>
      <g id="Raggruppa_490" data-name="Raggruppa 490" transform="translate(57.152 -58.967)">
        <path id="Tracciato_493" data-name="Tracciato 493" d="M0,0A3.057,3.057,0,0,1-3.055,3.057,3.057,3.057,0,0,1-6.111,0,3.056,3.056,0,0,1-3.055-3.055,3.056,3.056,0,0,1,0,0Z" fill="none" stroke="#e12614" stroke-width="0.726"/>
      </g>
      <g id="Raggruppa_491" data-name="Raggruppa 491" transform="translate(57.152 -52.856)">
        <path id="Tracciato_494" data-name="Tracciato 494" d="M0,0A3.056,3.056,0,0,1-3.055,3.056,3.056,3.056,0,0,1-6.111,0,3.057,3.057,0,0,1-3.055-3.056,3.057,3.057,0,0,1,0,0" fill="#f28b70" stroke="#e12614" stroke-width="0.587"/>
      </g>
      <g id="Raggruppa_492" data-name="Raggruppa 492" transform="translate(57.152 -52.856)">
        <path id="Tracciato_495" data-name="Tracciato 495" d="M0,0A3.056,3.056,0,0,1-3.055,3.056,3.056,3.056,0,0,1-6.111,0,3.057,3.057,0,0,1-3.055-3.056,3.057,3.057,0,0,1,0,0Z" fill="none" stroke="#e12614" stroke-width="0.726"/>
      </g>
      <g id="Raggruppa_493" data-name="Raggruppa 493" transform="translate(57.152 -46.746)">
        <path id="Tracciato_496" data-name="Tracciato 496" d="M0,0A3.057,3.057,0,0,1-3.055,3.057,3.057,3.057,0,0,1-6.111,0,3.056,3.056,0,0,1-3.055-3.055,3.056,3.056,0,0,1,0,0" fill="#f28b70" stroke="#e12614" stroke-width="0.587"/>
      </g>
      <g id="Raggruppa_494" data-name="Raggruppa 494" transform="translate(57.152 -46.746)">
        <path id="Tracciato_497" data-name="Tracciato 497" d="M0,0A3.057,3.057,0,0,1-3.055,3.057,3.057,3.057,0,0,1-6.111,0,3.056,3.056,0,0,1-3.055-3.055,3.056,3.056,0,0,1,0,0Z" fill="none" stroke="#e12614" stroke-width="0.726"/>
      </g>
      <g id="Raggruppa_495" data-name="Raggruppa 495" transform="translate(51.04 -71.189)">
        <path id="Tracciato_498" data-name="Tracciato 498" d="M0,0A3.056,3.056,0,0,1-3.054,3.057,3.057,3.057,0,0,1-6.111,0,3.057,3.057,0,0,1-3.054-3.055,3.055,3.055,0,0,1,0,0" fill="#f28b70" stroke="#e12614" stroke-width="0.587"/>
      </g>
      <g id="Raggruppa_496" data-name="Raggruppa 496" transform="translate(51.04 -71.189)">
        <path id="Tracciato_499" data-name="Tracciato 499" d="M0,0A3.056,3.056,0,0,1-3.054,3.057,3.057,3.057,0,0,1-6.111,0,3.057,3.057,0,0,1-3.054-3.055,3.055,3.055,0,0,1,0,0Z" fill="none" stroke="#e12614" stroke-width="0.726"/>
      </g>
      <g id="Raggruppa_497" data-name="Raggruppa 497" transform="translate(51.04 -65.078)">
        <path id="Tracciato_500" data-name="Tracciato 500" d="M0,0A3.055,3.055,0,0,1-3.054,3.056,3.057,3.057,0,0,1-6.111,0,3.057,3.057,0,0,1-3.054-3.055,3.055,3.055,0,0,1,0,0" fill="#f28b70" stroke="#e12614" stroke-width="0.587"/>
      </g>
      <g id="Raggruppa_498" data-name="Raggruppa 498" transform="translate(51.04 -65.078)">
        <path id="Tracciato_501" data-name="Tracciato 501" d="M0,0A3.055,3.055,0,0,1-3.054,3.056,3.057,3.057,0,0,1-6.111,0,3.057,3.057,0,0,1-3.054-3.055,3.055,3.055,0,0,1,0,0Z" fill="none" stroke="#e12614" stroke-width="0.726"/>
      </g>
      <g id="Raggruppa_499" data-name="Raggruppa 499" transform="translate(44.93 -71.189)">
        <path id="Tracciato_502" data-name="Tracciato 502" d="M0,0A3.056,3.056,0,0,1-3.054,3.057,3.056,3.056,0,0,1-6.11,0,3.056,3.056,0,0,1-3.054-3.055,3.056,3.056,0,0,1,0,0" fill="#f28b70" stroke="#e12614" stroke-width="0.587"/>
      </g>
      <g id="Raggruppa_500" data-name="Raggruppa 500" transform="translate(44.93 -71.189)">
        <path id="Tracciato_503" data-name="Tracciato 503" d="M0,0A3.056,3.056,0,0,1-3.054,3.057,3.056,3.056,0,0,1-6.11,0,3.056,3.056,0,0,1-3.054-3.055,3.056,3.056,0,0,1,0,0Z" fill="none" stroke="#e12614" stroke-width="0.726"/>
      </g>
    </g>
    <g id="Raggruppa_504" data-name="Raggruppa 504" clip-path="url(#clip-path-9)">
      <g id="Raggruppa_502" data-name="Raggruppa 502" transform="translate(38.82 -71.189)">
        <path id="Tracciato_505" data-name="Tracciato 505" d="M0,0A3.057,3.057,0,0,1-3.056,3.057,3.055,3.055,0,0,1-6.111,0,3.055,3.055,0,0,1-3.056-3.055,3.057,3.057,0,0,1,0,0" fill="#f28b70" stroke="#e12614" stroke-width="0.587"/>
      </g>
      <g id="Raggruppa_503" data-name="Raggruppa 503" transform="translate(38.82 -71.189)">
        <path id="Tracciato_506" data-name="Tracciato 506" d="M0,0A3.057,3.057,0,0,1-3.056,3.057,3.055,3.055,0,0,1-6.111,0,3.055,3.055,0,0,1-3.056-3.055,3.057,3.057,0,0,1,0,0Z" fill="none" stroke="#e12614" stroke-width="0.726"/>
      </g>
    </g>
    <g id="Raggruppa_529" data-name="Raggruppa 529" clip-path="url(#clip-path-8)">
      <g id="Raggruppa_505" data-name="Raggruppa 505" transform="translate(44.93 -65.078)">
        <path id="Tracciato_508" data-name="Tracciato 508" d="M0,0A3.055,3.055,0,0,1-3.054,3.056,3.055,3.055,0,0,1-6.11,0,3.056,3.056,0,0,1-3.054-3.055,3.056,3.056,0,0,1,0,0" fill="#f28b70" stroke="#e12614" stroke-width="0.587"/>
      </g>
      <g id="Raggruppa_506" data-name="Raggruppa 506" transform="translate(44.93 -65.078)">
        <path id="Tracciato_509" data-name="Tracciato 509" d="M0,0A3.055,3.055,0,0,1-3.054,3.056,3.055,3.055,0,0,1-6.11,0,3.056,3.056,0,0,1-3.054-3.055,3.056,3.056,0,0,1,0,0Z" fill="none" stroke="#e12614" stroke-width="0.726"/>
      </g>
      <g id="Raggruppa_507" data-name="Raggruppa 507" transform="translate(51.04 -58.967)">
        <path id="Tracciato_510" data-name="Tracciato 510" d="M0,0A3.056,3.056,0,0,1-3.054,3.057,3.058,3.058,0,0,1-6.111,0,3.057,3.057,0,0,1-3.054-3.055,3.055,3.055,0,0,1,0,0" fill="#f28b70" stroke="#e12614" stroke-width="0.587"/>
      </g>
      <g id="Raggruppa_508" data-name="Raggruppa 508" transform="translate(51.04 -58.967)">
        <path id="Tracciato_511" data-name="Tracciato 511" d="M0,0A3.056,3.056,0,0,1-3.054,3.057,3.058,3.058,0,0,1-6.111,0,3.057,3.057,0,0,1-3.054-3.055,3.055,3.055,0,0,1,0,0Z" fill="none" stroke="#e12614" stroke-width="0.726"/>
      </g>
      <g id="Raggruppa_509" data-name="Raggruppa 509" transform="translate(51.04 -46.746)">
        <path id="Tracciato_512" data-name="Tracciato 512" d="M0,0A3.056,3.056,0,0,1-3.054,3.057,3.058,3.058,0,0,1-6.111,0,3.057,3.057,0,0,1-3.054-3.055,3.055,3.055,0,0,1,0,0" fill="#f28b70" stroke="#e12614" stroke-width="0.587"/>
      </g>
      <g id="Raggruppa_510" data-name="Raggruppa 510" transform="translate(51.04 -46.746)">
        <path id="Tracciato_513" data-name="Tracciato 513" d="M0,0A3.056,3.056,0,0,1-3.054,3.057,3.058,3.058,0,0,1-6.111,0,3.057,3.057,0,0,1-3.054-3.055,3.055,3.055,0,0,1,0,0Z" fill="none" stroke="#e12614" stroke-width="0.726"/>
      </g>
      <g id="Raggruppa_511" data-name="Raggruppa 511" transform="translate(87.704 -40.635)">
        <path id="Tracciato_514" data-name="Tracciato 514" d="M0,0A3.056,3.056,0,0,1-3.054,3.056,3.056,3.056,0,0,1-6.11,0,3.056,3.056,0,0,1-3.054-3.056,3.056,3.056,0,0,1,0,0" fill="#fff" stroke="#e12614" stroke-width="0.587"/>
      </g>
      <g id="Raggruppa_512" data-name="Raggruppa 512" transform="translate(87.704 -40.635)">
        <path id="Tracciato_515" data-name="Tracciato 515" d="M0,0A3.056,3.056,0,0,1-3.054,3.056,3.056,3.056,0,0,1-6.11,0,3.056,3.056,0,0,1-3.054-3.056,3.056,3.056,0,0,1,0,0Z" fill="none" stroke="#e12614" stroke-width="0.726"/>
      </g>
      <g id="Raggruppa_513" data-name="Raggruppa 513" transform="translate(81.594 -40.635)">
        <path id="Tracciato_516" data-name="Tracciato 516" d="M0,0A3.056,3.056,0,0,1-3.054,3.056,3.057,3.057,0,0,1-6.111,0,3.057,3.057,0,0,1-3.054-3.056,3.056,3.056,0,0,1,0,0" fill="#f28b70" stroke="#e12614" stroke-width="0.587"/>
      </g>
      <g id="Raggruppa_514" data-name="Raggruppa 514" transform="translate(81.594 -40.635)">
        <path id="Tracciato_517" data-name="Tracciato 517" d="M0,0A3.056,3.056,0,0,1-3.054,3.056,3.057,3.057,0,0,1-6.111,0,3.057,3.057,0,0,1-3.054-3.056,3.056,3.056,0,0,1,0,0Z" fill="none" stroke="#e12614" stroke-width="0.726"/>
      </g>
      <g id="Raggruppa_515" data-name="Raggruppa 515" transform="translate(75.483 -40.635)">
        <path id="Tracciato_518" data-name="Tracciato 518" d="M0,0A3.056,3.056,0,0,1-3.055,3.056,3.056,3.056,0,0,1-6.11,0,3.056,3.056,0,0,1-3.055-3.056,3.056,3.056,0,0,1,0,0" fill="#f28b70" stroke="#e12614" stroke-width="0.587"/>
      </g>
      <g id="Raggruppa_516" data-name="Raggruppa 516" transform="translate(75.483 -40.635)">
        <path id="Tracciato_519" data-name="Tracciato 519" d="M0,0A3.056,3.056,0,0,1-3.055,3.056,3.056,3.056,0,0,1-6.11,0,3.056,3.056,0,0,1-3.055-3.056,3.056,3.056,0,0,1,0,0Z" fill="none" stroke="#e12614" stroke-width="0.726"/>
      </g>
      <g id="Raggruppa_517" data-name="Raggruppa 517" transform="translate(69.373 -40.635)">
        <path id="Tracciato_520" data-name="Tracciato 520" d="M0,0A3.056,3.056,0,0,1-3.056,3.056,3.055,3.055,0,0,1-6.11,0,3.055,3.055,0,0,1-3.056-3.056,3.056,3.056,0,0,1,0,0" fill="#f28b70" stroke="#e12614" stroke-width="0.587"/>
      </g>
      <g id="Raggruppa_518" data-name="Raggruppa 518" transform="translate(69.373 -40.635)">
        <path id="Tracciato_521" data-name="Tracciato 521" d="M0,0A3.056,3.056,0,0,1-3.056,3.056,3.055,3.055,0,0,1-6.11,0,3.055,3.055,0,0,1-3.056-3.056,3.056,3.056,0,0,1,0,0Z" fill="none" stroke="#e12614" stroke-width="0.726"/>
      </g>
      <g id="Raggruppa_519" data-name="Raggruppa 519" transform="translate(63.263 -40.635)">
        <path id="Tracciato_522" data-name="Tracciato 522" d="M0,0A3.056,3.056,0,0,1-3.054,3.056,3.055,3.055,0,0,1-6.111,0,3.055,3.055,0,0,1-3.054-3.056,3.056,3.056,0,0,1,0,0" fill="#f28b70" stroke="#e12614" stroke-width="0.587"/>
      </g>
      <g id="Raggruppa_520" data-name="Raggruppa 520" transform="translate(63.263 -40.635)">
        <path id="Tracciato_523" data-name="Tracciato 523" d="M0,0A3.056,3.056,0,0,1-3.054,3.056,3.055,3.055,0,0,1-6.111,0,3.055,3.055,0,0,1-3.054-3.056,3.056,3.056,0,0,1,0,0Z" fill="none" stroke="#e12614" stroke-width="0.726"/>
      </g>
      <g id="Raggruppa_521" data-name="Raggruppa 521" transform="translate(57.152 -40.635)">
        <path id="Tracciato_524" data-name="Tracciato 524" d="M0,0A3.056,3.056,0,0,1-3.055,3.056,3.056,3.056,0,0,1-6.111,0,3.056,3.056,0,0,1-3.055-3.056,3.056,3.056,0,0,1,0,0" fill="#f28b70" stroke="#e12614" stroke-width="0.587"/>
      </g>
      <g id="Raggruppa_522" data-name="Raggruppa 522" transform="translate(57.152 -40.635)">
        <path id="Tracciato_525" data-name="Tracciato 525" d="M0,0A3.056,3.056,0,0,1-3.055,3.056,3.056,3.056,0,0,1-6.111,0,3.056,3.056,0,0,1-3.055-3.056,3.056,3.056,0,0,1,0,0Z" fill="none" stroke="#e12614" stroke-width="0.726"/>
      </g>
      <g id="Raggruppa_523" data-name="Raggruppa 523" transform="translate(81.594 -34.525)">
        <path id="Tracciato_526" data-name="Tracciato 526" d="M0,0A3.057,3.057,0,0,1-3.054,3.056,3.057,3.057,0,0,1-6.111,0,3.056,3.056,0,0,1-3.054-3.055,3.056,3.056,0,0,1,0,0" fill="#f28b70" stroke="#e12614" stroke-width="0.587"/>
      </g>
      <g id="Raggruppa_524" data-name="Raggruppa 524" transform="translate(81.594 -34.525)">
        <path id="Tracciato_527" data-name="Tracciato 527" d="M0,0A3.057,3.057,0,0,1-3.054,3.056,3.057,3.057,0,0,1-6.111,0,3.056,3.056,0,0,1-3.054-3.055,3.056,3.056,0,0,1,0,0Z" fill="none" stroke="#e12614" stroke-width="0.726"/>
      </g>
      <g id="Raggruppa_525" data-name="Raggruppa 525" transform="translate(75.483 -34.525)">
        <path id="Tracciato_528" data-name="Tracciato 528" d="M0,0A3.056,3.056,0,0,1-3.055,3.056,3.057,3.057,0,0,1-6.11,0,3.056,3.056,0,0,1-3.055-3.055,3.055,3.055,0,0,1,0,0" fill="#f28b70" stroke="#e12614" stroke-width="0.587"/>
      </g>
      <g id="Raggruppa_526" data-name="Raggruppa 526" transform="translate(75.483 -34.525)">
        <path id="Tracciato_529" data-name="Tracciato 529" d="M0,0A3.056,3.056,0,0,1-3.055,3.056,3.057,3.057,0,0,1-6.11,0,3.056,3.056,0,0,1-3.055-3.055,3.055,3.055,0,0,1,0,0Z" fill="none" stroke="#e12614" stroke-width="0.726"/>
      </g>
      <g id="Raggruppa_527" data-name="Raggruppa 527" transform="translate(69.373 -34.525)">
        <path id="Tracciato_530" data-name="Tracciato 530" d="M0,0A3.057,3.057,0,0,1-3.056,3.056,3.056,3.056,0,0,1-6.11,0,3.055,3.055,0,0,1-3.056-3.055,3.056,3.056,0,0,1,0,0" fill="#f28b70" stroke="#e12614" stroke-width="0.587"/>
      </g>
      <g id="Raggruppa_528" data-name="Raggruppa 528" transform="translate(69.373 -34.525)">
        <path id="Tracciato_531" data-name="Tracciato 531" d="M0,0A3.057,3.057,0,0,1-3.056,3.056,3.056,3.056,0,0,1-6.11,0,3.055,3.055,0,0,1-3.056-3.055,3.056,3.056,0,0,1,0,0Z" fill="none" stroke="#e12614" stroke-width="0.726"/>
      </g>
    </g>
    <g id="Raggruppa_534" data-name="Raggruppa 534" clip-path="url(#clip-path-9)">
      <g id="Raggruppa_530" data-name="Raggruppa 530" transform="translate(75.483 -28.414)">
        <path id="Tracciato_533" data-name="Tracciato 533" d="M0,0A3.056,3.056,0,0,1-3.055,3.057,3.057,3.057,0,0,1-6.11,0,3.056,3.056,0,0,1-3.055-3.055,3.055,3.055,0,0,1,0,0" fill="#f28b70" stroke="#e12614" stroke-width="0.587"/>
      </g>
      <g id="Raggruppa_531" data-name="Raggruppa 531" transform="translate(75.483 -28.414)">
        <path id="Tracciato_534" data-name="Tracciato 534" d="M0,0A3.056,3.056,0,0,1-3.055,3.057,3.057,3.057,0,0,1-6.11,0,3.056,3.056,0,0,1-3.055-3.055,3.055,3.055,0,0,1,0,0Z" fill="none" stroke="#e12614" stroke-width="0.726"/>
      </g>
      <g id="Raggruppa_532" data-name="Raggruppa 532" transform="translate(69.373 -28.414)">
        <path id="Tracciato_535" data-name="Tracciato 535" d="M0,0A3.057,3.057,0,0,1-3.056,3.057,3.056,3.056,0,0,1-6.11,0,3.055,3.055,0,0,1-3.056-3.055,3.056,3.056,0,0,1,0,0" fill="#f28b70" stroke="#e12614" stroke-width="0.587"/>
      </g>
      <g id="Raggruppa_533" data-name="Raggruppa 533" transform="translate(69.373 -28.414)">
        <path id="Tracciato_536" data-name="Tracciato 536" d="M0,0A3.057,3.057,0,0,1-3.056,3.057,3.056,3.056,0,0,1-6.11,0,3.055,3.055,0,0,1-3.056-3.055,3.056,3.056,0,0,1,0,0Z" fill="none" stroke="#e12614" stroke-width="0.726"/>
      </g>
    </g>
    <g id="Raggruppa_541" data-name="Raggruppa 541" clip-path="url(#clip-path-8)">
      <g id="Raggruppa_535" data-name="Raggruppa 535" transform="translate(63.263 -34.525)">
        <path id="Tracciato_538" data-name="Tracciato 538" d="M0,0A3.057,3.057,0,0,1-3.054,3.056,3.056,3.056,0,0,1-6.111,0,3.055,3.055,0,0,1-3.054-3.055,3.056,3.056,0,0,1,0,0" fill="#f28b70" stroke="#e12614" stroke-width="0.587"/>
      </g>
      <g id="Raggruppa_536" data-name="Raggruppa 536" transform="translate(63.263 -34.525)">
        <path id="Tracciato_539" data-name="Tracciato 539" d="M0,0A3.057,3.057,0,0,1-3.054,3.056,3.056,3.056,0,0,1-6.111,0,3.055,3.055,0,0,1-3.054-3.055,3.056,3.056,0,0,1,0,0Z" fill="none" stroke="#e12614" stroke-width="0.726"/>
      </g>
      <g id="Raggruppa_537" data-name="Raggruppa 537" transform="translate(57.152 -34.525)">
        <path id="Tracciato_540" data-name="Tracciato 540" d="M0,0A3.057,3.057,0,0,1-3.055,3.056,3.057,3.057,0,0,1-6.111,0,3.056,3.056,0,0,1-3.055-3.055,3.056,3.056,0,0,1,0,0" fill="#f28b70" stroke="#e12614" stroke-width="0.587"/>
      </g>
      <g id="Raggruppa_538" data-name="Raggruppa 538" transform="translate(57.152 -34.525)">
        <path id="Tracciato_541" data-name="Tracciato 541" d="M0,0A3.057,3.057,0,0,1-3.055,3.056,3.057,3.057,0,0,1-6.111,0,3.056,3.056,0,0,1-3.055-3.055,3.056,3.056,0,0,1,0,0Z" fill="none" stroke="#e12614" stroke-width="0.726"/>
      </g>
      <g id="Raggruppa_539" data-name="Raggruppa 539" transform="translate(51.04 -40.635)">
        <path id="Tracciato_542" data-name="Tracciato 542" d="M0,0A3.055,3.055,0,0,1-3.054,3.056,3.057,3.057,0,0,1-6.111,0,3.057,3.057,0,0,1-3.054-3.056,3.055,3.055,0,0,1,0,0" fill="#f28b70" stroke="#e12614" stroke-width="0.587"/>
      </g>
      <g id="Raggruppa_540" data-name="Raggruppa 540" transform="translate(51.04 -40.635)">
        <path id="Tracciato_543" data-name="Tracciato 543" d="M0,0A3.055,3.055,0,0,1-3.054,3.056,3.057,3.057,0,0,1-6.111,0,3.057,3.057,0,0,1-3.054-3.056,3.055,3.055,0,0,1,0,0Z" fill="none" stroke="#e12614" stroke-width="0.726"/>
      </g>
    </g>
  </g>
</svg>
